<?xml version="1.0" encoding="utf-8"?>
<svg version="1.1" xmlns:xlink="http://www.w3.org/1999/xlink" width="9px" height="20px" xmlns="http://www.w3.org/2000/svg">
  <g transform="matrix(1 0 0 1 -270 -262 )">
    <path d="M 8.8948051948052 4.56018518518519  C 8.9961038961039 4.68364197530864  9.01558441558442 4.81867283950617  8.95324675324675 4.96527777777778  C 8.88311688311688 5.11188271604938  8.77012987012987 5.18518518518519  8.61428571428571 5.18518518518519  L 6 5.18518518518519  L 6 19.6296296296296  C 5.9961038961039 19.7376543209877  5.96103896103896 19.8263888888889  5.89090909090909 19.8958333333333  C 5.82077922077922 19.9652777777778  5.73116883116883 20  5.62207792207792 20  L 3.37792207792208 20  C 3.26883116883117 20  3.17922077922078 19.9652777777778  3.10909090909091 19.8958333333333  C 3.03896103896104 19.8263888888889  3.0038961038961 19.7376543209877  3 19.6296296296296  L 3 5.18518518518519  L 0.385714285714286 5.18518518518519  C 0.222077922077922 5.18518518518519  0.109090909090909 5.11188271604938  0.0467532467532468 4.96527777777778  C -0.0155844155844156 4.81867283950617  0.00389610389610389 4.68364197530864  0.105194805194805 4.56018518518519  L 4.1961038961039 0.115740740740742  C 4.27402597402597 0.0385802469135799  4.36363636363636 0  4.46493506493507 0  C 4.57402597402597 0  4.66753246753247 0.0385802469135799  4.74545454545455 0.115740740740742  L 8.8948051948052 4.56018518518519  Z " fill-rule="nonzero" fill="#00ccd9" stroke="none" fill-opacity="0.996078431372549" transform="matrix(1 0 0 1 270 262 )" />
  </g>
</svg>