<?xml version="1.0" encoding="utf-8"?>
<svg version="1.1" xmlns:xlink="http://www.w3.org/1999/xlink" width="1606px" height="944px" xmlns="http://www.w3.org/2000/svg">
  <g transform="matrix(1 0 0 1 -99 -100 )">
    <path d="M 100 105  A 4 4 0 0 1 104 101 L 1700 101  A 4 4 0 0 1 1704 105 L 1704 1039  A 4 4 0 0 1 1700 1043 L 104 1043  A 4 4 0 0 1 100 1039 L 100 105  Z " fill-rule="nonzero" fill="#e0e0e0" stroke="none" />
    <path d="M 99.5 105  A 4.5 4.5 0 0 1 104 100.5 L 1700 100.5  A 4.5 4.5 0 0 1 1704.5 105 L 1704.5 1039  A 4.5 4.5 0 0 1 1700 1043.5 L 104 1043.5  A 4.5 4.5 0 0 1 99.5 1039 L 99.5 105  Z " stroke-width="1" stroke="#797979" fill="none" stroke-opacity="0.623529411764706" />
  </g>
</svg>