<?xml version="1.0" encoding="utf-8"?>
<svg version="1.1" xmlns:xlink="http://www.w3.org/1999/xlink" width="114px" height="34px" viewBox="616 278  114 34" xmlns="http://www.w3.org/2000/svg">
  <path d="M 617 281  A 2 2 0 0 1 619 279 L 727 279  A 2 2 0 0 1 729 281 L 729 309  A 2 2 0 0 1 727 311 L 619 311  A 2 2 0 0 1 617 309 L 617 281  Z " fill-rule="nonzero" fill="#ffffff" stroke="none" />
  <path d="M 616.5 281  A 2.5 2.5 0 0 1 619 278.5 L 727 278.5  A 2.5 2.5 0 0 1 729.5 281 L 729.5 309  A 2.5 2.5 0 0 1 727 311.5 L 619 311.5  A 2.5 2.5 0 0 1 616.5 309 L 616.5 281  Z " stroke-width="1" stroke="#aaaaaa" fill="none" stroke-opacity="0.968627450980392" />
</svg>