<?xml version="1.0" encoding="utf-8"?>
<svg version="1.1" xmlns:xlink="http://www.w3.org/1999/xlink" width="21px" height="20px" xmlns="http://www.w3.org/2000/svg">
  <g transform="matrix(1 0 0 1 -517 -417 )">
    <path d="M 9.68270944741533 6.53266331658291  C 10.1485442661913 6.06365159128978  10.3814616755793 5.49413735343383  10.3814616755793 4.82412060301508  C 10.3814616755793 4.15410385259631  10.1485442661913 3.58458961474037  9.68270944741533 3.11557788944724  C 9.21687462863934 2.6465661641541  8.65121806298277 2.41206030150754  7.98573975044563 2.41206030150754  C 7.3202614379085 2.41206030150754  6.75460487225193 2.6465661641541  6.28877005347594 3.11557788944724  C 5.82293523469994 3.58458961474037  5.59001782531194 4.15410385259631  5.59001782531194 4.82412060301508  C 5.59001782531194 5.17587939698492  5.66904337492573 5.52345058626466  5.8270944741533 5.86683417085427  C 5.48603683897802 5.70770519262982  5.14081996434938 5.62814070351759  4.79144385026738 5.62814070351759  C 4.12596553773024 5.62814070351759  3.56030897207368 5.86264656616415  3.09447415329768 6.33165829145729  C 2.62863933452169 6.80067001675042  2.39572192513369 7.37018425460636  2.39572192513369 8.04020100502512  C 2.39572192513369 8.71021775544389  2.62863933452169 9.27973199329983  3.09447415329768 9.74874371859297  C 3.56030897207368 10.2177554438861  4.12596553773024 10.4522613065327  4.79144385026738 10.4522613065327  C 5.45692216280452 10.4522613065327  6.02257872846108 10.2177554438861  6.48841354723708 9.74874371859297  C 6.95424836601307 9.27973199329983  7.18716577540107 8.71021775544389  7.18716577540107 8.04020100502512  C 7.18716577540107 7.68844221105527  7.10814022578729 7.34087102177554  6.95008912655971 6.99748743718593  C 7.291146761735 7.15661641541038  7.63636363636364 7.23618090452261  7.98573975044563 7.23618090452261  C 8.65121806298277 7.23618090452261  9.21687462863934 7.00167504187605  9.68270944741533 6.53266331658291  Z M 20.644385026738 13.1532663316583  C 20.8814616755793 13.429648241206  21 13.6013400335008  21 13.6683417085427  C 21 13.8107202680067  20.7961972667855 14.0871021775544  20.3885918003565 14.4974874371859  C 19.9809863339275 14.9078726968174  19.7064765300059 15.1130653266332  19.5650623885918 15.1130653266332  C 19.4901960784314 15.1130653266332  19.3716577540107 15.0460636515913  19.2094474153298 14.9120603015075  C 19.0472370766488 14.7780569514238  18.8954248366013 14.6398659966499  18.7540106951872 14.4974874371859  C 18.612596553773 14.3551088777219  18.4524658348188 14.1876046901173  18.2736185383244 13.9949748743719  C 18.0947712418301 13.8023450586265  17.9928698752228 13.6934673366834  17.9679144385027 13.6683417085427  L 16.7700534759358 14.8743718592965  L 19.5151515151515 17.6381909547739  C 19.7480689245395 17.8726968174204  19.8645276292335 18.1574539363484  19.8645276292335 18.4924623115578  C 19.8645276292335 18.8442211055276  19.7023172905526 19.1834170854271  19.3778966131907 19.5100502512563  C 19.0534759358289 19.8366834170854  18.716577540107 20  18.367201426025 20  C 18.0344622697564 20  17.7516339869281 19.8827470686767  17.5187165775401 19.6482412060302  L 9.14616755793226 11.2185929648241  C 7.68211527035057 12.3157453936348  6.16399286987522 12.8643216080402  4.59180035650624 12.8643216080402  C 3.23588829471182 12.8643216080402  2.13161021984551 12.4350921273032  1.27896613190731 11.5766331658291  C 0.426322043969103 10.7181742043551  0 9.60636515912898  0 8.24120603015075  C 0 6.90117252931323  0.395127748068924 5.59045226130653  1.18538324420677 4.30904522613065  C 1.97563874034462 3.02763819095477  3.00713012477718 1.98911222780569  4.27985739750446 1.19346733668342  C 5.55258467023173 0.397822445561138  6.8544266191325 0  8.18538324420677 0  C 9.54129530600119 0  10.6455733808675 0.429229480737017  11.4982174688057 1.28768844221105  C 12.3508615567439 2.14614740368509  12.777183600713 3.25795644891122  12.777183600713 4.62311557788945  C 12.777183600713 6.20603015075377  12.2323232323232 7.73450586264657  11.1426024955437 9.20854271356784  L 15.572192513369 13.6683417085427  L 16.7700534759358 12.4623115577889  C 16.7450980392157 12.4371859296482  16.6369578134284 12.3345896147404  16.445632798574 12.1545226130653  C 16.2543077837196 11.9744556113903  16.0879382055853 11.8132328308208  15.9465240641711 11.6708542713568  C 15.805109922757 11.5284757118928  15.6678550207962 11.3756281407035  15.5347593582888 11.2123115577889  C 15.4016636957813 11.0489949748744  15.3351158645276 10.929648241206  15.3351158645276 10.8542713567839  C 15.3351158645276 10.7118927973199  15.5389185977421 10.4355108877722  15.9465240641711 10.0251256281407  C 16.3541295306001 9.61474036850921  16.6286393345217 9.40954773869347  16.7700534759358 9.40954773869347  C 16.8781937017231 9.40954773869347  16.9738562091503 9.45142378559464  17.0570409982175 9.53517587939698  C 17.1069518716578 9.58542713567839  17.2982768865122 9.77177554438861  17.6310160427808 10.0942211055276  C 17.9637551990493 10.4166666666667  18.3048128342246 10.749581239531  18.6541889483066 11.0929648241206  C 19.0035650623886 11.4363484087102  19.363339275104 11.7964824120603  19.7335115864528 12.1733668341709  C 20.1036838978015 12.5502512562814  20.4073083778966 12.8768844221106  20.644385026738 13.1532663316583  Z " fill-rule="nonzero" fill="#aaaaaa" stroke="none" fill-opacity="0.996078431372549" transform="matrix(1 0 0 1 517 417 )" />
  </g>
</svg>