<?xml version="1.0" encoding="utf-8"?>
<svg version="1.1" xmlns:xlink="http://www.w3.org/1999/xlink" width="143px" height="28px" viewBox="726 245  143 28" xmlns="http://www.w3.org/2000/svg">
  <path d="M 727 250  A 4 4 0 0 1 731 246 L 864 246  A 4 4 0 0 1 868 250 L 868 268  A 4 4 0 0 1 864 272 L 731 272  A 4 4 0 0 1 727 268 L 727 250  Z " fill-rule="nonzero" fill="#f0f0f0" stroke="none" />
  <path d="M 726.5 250  A 4.5 4.5 0 0 1 731 245.5 L 864 245.5  A 4.5 4.5 0 0 1 868.5 250 L 868.5 268  A 4.5 4.5 0 0 1 864 272.5 L 731 272.5  A 4.5 4.5 0 0 1 726.5 268 L 726.5 250  Z " stroke-width="1" stroke="#797979" fill="none" stroke-opacity="0.533333333333333" />
</svg>