<?xml version="1.0" encoding="utf-8"?>
<svg version="1.1" xmlns:xlink="http://www.w3.org/1999/xlink" width="1610px" height="1047px" xmlns="http://www.w3.org/2000/svg">
  <g transform="matrix(1 0 0 1 -80 -103 )">
    <path d="M 81 108  A 4 4 0 0 1 85 104 L 1685 104  A 4 4 0 0 1 1689 108 L 1689 1145  A 4 4 0 0 1 1685 1149 L 85 1149  A 4 4 0 0 1 81 1145 L 81 108  Z " fill-rule="nonzero" fill="#ffffff" stroke="none" />
    <path d="M 80.5 108  A 4.5 4.5 0 0 1 85 103.5 L 1685 103.5  A 4.5 4.5 0 0 1 1689.5 108 L 1689.5 1145  A 4.5 4.5 0 0 1 1685 1149.5 L 85 1149.5  A 4.5 4.5 0 0 1 80.5 1145 L 80.5 108  Z " stroke-width="1" stroke="#797979" fill="none" stroke-opacity="0.623529411764706" />
  </g>
</svg>