<?xml version="1.0" encoding="utf-8"?>
<svg version="1.1" xmlns:xlink="http://www.w3.org/1999/xlink" width="12px" height="12px" viewBox="30 129.5  12 12" xmlns="http://www.w3.org/2000/svg">
  <path d="M 36 129.5  C 39.36 129.5  42 132.14  42 135.5  C 42 138.86  39.36 141.5  36 141.5  C 32.64 141.5  30 138.86  30 135.5  C 30 132.14  32.64 129.5  36 129.5  Z " fill-rule="nonzero" fill="#ffffff" stroke="none" />
  <path d="M 36 130  C 39.08 130  41.5 132.42  41.5 135.5  C 41.5 138.58  39.08 141  36 141  C 32.92 141  30.5 138.58  30.5 135.5  C 30.5 132.42  32.92 130  36 130  Z " stroke-width="1" stroke="#797979" fill="none" />
  <path d="M 36 138.5  C 34.32 138.5  33 137.18  33 135.5  C 33 133.82  34.32 132.5  36 132.5  C 37.68 132.5  39 133.82  39 135.5  C 39 137.18  37.68 138.5  36 138.5  " fill-rule="nonzero" fill="#797979" stroke="none" />
</svg>