<?xml version="1.0" encoding="utf-8"?>
<svg version="1.1" xmlns:xlink="http://www.w3.org/1999/xlink" width="12px" height="12px" viewBox="30 95.5  12 12" xmlns="http://www.w3.org/2000/svg">
  <path d="M 36 95.5  C 39.36 95.5  42 98.14  42 101.5  C 42 104.86  39.36 107.5  36 107.5  C 32.64 107.5  30 104.86  30 101.5  C 30 98.14  32.64 95.5  36 95.5  Z " fill-rule="nonzero" fill="#ffffff" stroke="none" />
  <path d="M 36 96  C 39.08 96  41.5 98.42  41.5 101.5  C 41.5 104.58  39.08 107  36 107  C 32.92 107  30.5 104.58  30.5 101.5  C 30.5 98.42  32.92 96  36 96  Z " stroke-width="1" stroke="#797979" fill="none" />
  <path d="M 36 104.5  C 34.32 104.5  33 103.18  33 101.5  C 33 99.82  34.32 98.5  36 98.5  C 37.68 98.5  39 99.82  39 101.5  C 39 103.18  37.68 104.5  36 104.5  " fill-rule="nonzero" fill="#797979" stroke="none" />
</svg>