<?xml version="1.0" encoding="utf-8"?>
<svg version="1.1" xmlns:xlink="http://www.w3.org/1999/xlink" width="12px" height="12px" viewBox="26 123.5  12 12" xmlns="http://www.w3.org/2000/svg">
  <path d="M 32 123.5  C 35.36 123.5  38 126.14  38 129.5  C 38 132.86  35.36 135.5  32 135.5  C 28.64 135.5  26 132.86  26 129.5  C 26 126.14  28.64 123.5  32 123.5  Z " fill-rule="nonzero" fill="#ffffff" stroke="none" />
  <path d="M 32 124  C 35.08 124  37.5 126.42  37.5 129.5  C 37.5 132.58  35.08 135  32 135  C 28.92 135  26.5 132.58  26.5 129.5  C 26.5 126.42  28.92 124  32 124  Z " stroke-width="1" stroke="#797979" fill="none" />
  <path d="M 32 132.5  C 30.32 132.5  29 131.18  29 129.5  C 29 127.82  30.32 126.5  32 126.5  C 33.68 126.5  35 127.82  35 129.5  C 35 131.18  33.68 132.5  32 132.5  " fill-rule="nonzero" fill="#797979" stroke="none" />
</svg>