<?xml version="1.0" encoding="utf-8"?>
<svg version="1.1" xmlns:xlink="http://www.w3.org/1999/xlink" width="12px" height="12px" viewBox="342 396  12 12" xmlns="http://www.w3.org/2000/svg">
  <path d="M 342.5 398  A 1.5 1.5 0 0 1 344 396.5 L 352 396.5  A 1.5 1.5 0 0 1 353.5 398 L 353.5 406  A 1.5 1.5 0 0 1 352 407.5 L 344 407.5  A 1.5 1.5 0 0 1 342.5 406 L 342.5 398  Z " fill-rule="nonzero" fill="#ffffff" stroke="none" />
  <path d="M 342.5 398  A 1.5 1.5 0 0 1 344 396.5 L 352 396.5  A 1.5 1.5 0 0 1 353.5 398 L 353.5 406  A 1.5 1.5 0 0 1 352 407.5 L 344 407.5  A 1.5 1.5 0 0 1 342.5 406 L 342.5 398  Z " stroke-width="1" stroke="#797979" fill="none" />
  <path d="M 344.571428571429 402  L 347.142857142857 404.571428571429  L 351.428571428571 398.571428571429  " stroke-width="2.57142857142857" stroke="#797979" fill="none" />
</svg>