<?xml version="1.0" encoding="utf-8"?>
<svg version="1.1" xmlns:xlink="http://www.w3.org/1999/xlink" width="220px" height="30px" xmlns="http://www.w3.org/2000/svg">
  <g transform="matrix(1 0 0 1 -324 -237 )">
    <path d="M 325 242  A 4 4 0 0 1 329 238 L 539 238  A 4 4 0 0 1 543 242 L 543 262  A 4 4 0 0 1 539 266 L 329 266  A 4 4 0 0 1 325 262 L 325 242  Z " fill-rule="nonzero" fill="#ffffff" stroke="none" />
    <path d="M 324.5 242  A 4.5 4.5 0 0 1 329 237.5 L 539 237.5  A 4.5 4.5 0 0 1 543.5 242 L 543.5 262  A 4.5 4.5 0 0 1 539 266.5 L 329 266.5  A 4.5 4.5 0 0 1 324.5 262 L 324.5 242  Z " stroke-width="1" stroke="#d7d7d7" fill="none" stroke-opacity="0.968627450980392" />
  </g>
</svg>