<?xml version="1.0" encoding="utf-8"?>
<svg version="1.1" xmlns:xlink="http://www.w3.org/1999/xlink" width="12px" height="12px" viewBox="342 499  12 12" xmlns="http://www.w3.org/2000/svg">
  <path d="M 342.5 501  A 1.5 1.5 0 0 1 344 499.5 L 352 499.5  A 1.5 1.5 0 0 1 353.5 501 L 353.5 509  A 1.5 1.5 0 0 1 352 510.5 L 344 510.5  A 1.5 1.5 0 0 1 342.5 509 L 342.5 501  Z " fill-rule="nonzero" fill="#f0f0f0" stroke="none" />
  <path d="M 342.5 501  A 1.5 1.5 0 0 1 344 499.5 L 352 499.5  A 1.5 1.5 0 0 1 353.5 501 L 353.5 509  A 1.5 1.5 0 0 1 352 510.5 L 344 510.5  A 1.5 1.5 0 0 1 342.5 509 L 342.5 501  Z " stroke-width="1" stroke="#797979" fill="none" />
</svg>