<?xml version="1.0" encoding="utf-8"?>
<svg version="1.1" xmlns:xlink="http://www.w3.org/1999/xlink" width="12px" height="12px" viewBox="342 704  12 12" xmlns="http://www.w3.org/2000/svg">
  <path d="M 342.5 706  A 1.5 1.5 0 0 1 344 704.5 L 352 704.5  A 1.5 1.5 0 0 1 353.5 706 L 353.5 714  A 1.5 1.5 0 0 1 352 715.5 L 344 715.5  A 1.5 1.5 0 0 1 342.5 714 L 342.5 706  Z " fill-rule="nonzero" fill="#f0f0f0" stroke="none" />
  <path d="M 342.5 706  A 1.5 1.5 0 0 1 344 704.5 L 352 704.5  A 1.5 1.5 0 0 1 353.5 706 L 353.5 714  A 1.5 1.5 0 0 1 352 715.5 L 344 715.5  A 1.5 1.5 0 0 1 342.5 714 L 342.5 706  Z " stroke-width="1" stroke="#797979" fill="none" />
</svg>