<?xml version="1.0" encoding="utf-8"?>
<svg version="1.1" xmlns:xlink="http://www.w3.org/1999/xlink" width="12px" height="12px" viewBox="342 567  12 12" xmlns="http://www.w3.org/2000/svg">
  <path d="M 342.5 569  A 1.5 1.5 0 0 1 344 567.5 L 352 567.5  A 1.5 1.5 0 0 1 353.5 569 L 353.5 577  A 1.5 1.5 0 0 1 352 578.5 L 344 578.5  A 1.5 1.5 0 0 1 342.5 577 L 342.5 569  Z " fill-rule="nonzero" fill="#ffffff" stroke="none" />
  <path d="M 342.5 569  A 1.5 1.5 0 0 1 344 567.5 L 352 567.5  A 1.5 1.5 0 0 1 353.5 569 L 353.5 577  A 1.5 1.5 0 0 1 352 578.5 L 344 578.5  A 1.5 1.5 0 0 1 342.5 577 L 342.5 569  Z " stroke-width="1" stroke="#797979" fill="none" />
</svg>