<?xml version="1.0" encoding="utf-8"?>
<svg version="1.1" xmlns:xlink="http://www.w3.org/1999/xlink" width="12px" height="12px" viewBox="342 636  12 12" xmlns="http://www.w3.org/2000/svg">
  <path d="M 342.5 638  A 1.5 1.5 0 0 1 344 636.5 L 352 636.5  A 1.5 1.5 0 0 1 353.5 638 L 353.5 646  A 1.5 1.5 0 0 1 352 647.5 L 344 647.5  A 1.5 1.5 0 0 1 342.5 646 L 342.5 638  Z " fill-rule="nonzero" fill="#ffffff" stroke="none" />
  <path d="M 342.5 638  A 1.5 1.5 0 0 1 344 636.5 L 352 636.5  A 1.5 1.5 0 0 1 353.5 638 L 353.5 646  A 1.5 1.5 0 0 1 352 647.5 L 344 647.5  A 1.5 1.5 0 0 1 342.5 646 L 342.5 638  Z " stroke-width="1" stroke="#797979" fill="none" />
</svg>