<?xml version="1.0" encoding="utf-8"?>
<svg version="1.1" xmlns:xlink="http://www.w3.org/1999/xlink" width="14px" height="15px" xmlns="http://www.w3.org/2000/svg">
  <g transform="matrix(1 0 0 1 -330 -180 )">
    <path d="M 13.8298675709182 14.8178894568675  C 14.0498717458873 14.5750753993576  14.0614509083488 14.1828373015929  13.8356571521489 13.9400232598912  L 11.7803550214269 11.7297927303232  C 13.9767849382342 8.88580319910129  13.7960796896202 4.71047630159205  11.3635050111117 2.0981684490959  C 10.116886119801 0.752734625803395  8.42274613641289 -0.00244548735209007  6.65657361829859 0  C 4.9544360749533 0  3.24650893567715 0.697318111227766  1.94964224018556 2.0981684490959  C -0.649880746728539 4.89364310998141  -0.649880746728539 9.42617218350019  1.94964224018556 12.2216468443857  C 3.25229853160801 13.6224971822538  4.9544360749533 14.3198093437625  6.65657361829859 14.3198093437625  C 8.1908132471517 14.3198093437625  9.72505287600481 13.7470172105301  10.9640237444888 12.6138849421504  L 13.0135362939801 14.8178894568675  C 13.23933005018 15.0607035143775  13.609863395949 15.0607035143775  13.8298675709182 14.8178894568675  Z M 6.65657361829859 13.0683830461492  C 5.18601941238396 13.0746090451917  3.80809853556151 12.458234902853  2.76597351712365 11.3437806316011  C 0.623827623840088 9.04016008477804  0.623827623840088 5.28588119193791  2.76597351712365 2.97603466188048  C 3.79610827086982 1.86390727814635  5.19689167927945 1.2407345897404  6.65657361829859 1.24520624828985  C 8.12712782421324 1.24520624828985  9.50504870103569 1.86158039062858  10.5471737341737 2.97603466188048  C 12.6661612878341 5.25475119672503  12.6893196274572 8.9343180694377  10.6224383195736 11.2503906143459  C 10.5992799799505 11.2690686114737  10.5761216550275 11.2752946263245  10.5587528966352 11.2939726234522  C 10.535594557012 11.3188766354308  10.5240153945506 11.3500066306437  10.5066466508583 11.3749106426222  C 9.48074119888712 12.4626008991333  8.09723368605507 13.0711430678765  6.65657361829859 13.0683830461492  Z " fill-rule="nonzero" fill="#8a8a8a" stroke="none" transform="matrix(1 0 0 1 330 180 )" />
  </g>
</svg>