<?xml version="1.0" encoding="utf-8"?>
<svg version="1.1" xmlns:xlink="http://www.w3.org/1999/xlink" width="12px" height="13px" xmlns="http://www.w3.org/2000/svg">
  <g transform="matrix(1 0 0 1 -397 -327 )">
    <path d="M 10.9350902042134 0.184843784393848  L 5.17621584728272 6.01159252140039  C 5.04424947288788 6.14612760951363  4.98945265553829 6.32478887942477  5.00166055408704 6.50042588528558  C 4.98946526700377 6.67496547887495  5.04424947288788 6.85264418198491  5.17621584728272 6.98714098827472  L 10.9350902042134 12.8159314225305  C 11.1786680477782 13.0613561924898  11.5724484447684 13.0613561924898  11.8180819572005 12.8159314225305  C 12.0616598007653 12.5694730433387  12.0596167433636 12.168981367304  11.8180819572005 11.9225357487201  L 6.45707411206348 6.50042588528558  L 11.8180819572005 1.07623604277848  C 12.0596167433636 0.829764902978894  12.0616598007653 0.431302163585599  11.8180819572005 0.184843784393848  C 11.5724484447684 -0.0616145947979589  11.1786680477782 -0.0616145947979589  10.9350902042134 0.184843784393848  Z M 0.178044537956566 6.01159252140042  C 0.0440589723922926 6.14614037012146  -0.00971179951977774 6.32480164003258  0.00142318912901374 6.50042588528555  C -0.00969918911357581 6.67495271826715  0.0440589723922926 6.85264418198494  0.178044537956566 6.98715374888252  L 5.93640997014478 12.8159314225305  C 6.1799673549267 13.0613561924898  6.5737525084208 13.0613561924898  6.81732250360892 12.8159314225305  C 7.06089249879705 12.5694730433387  7.06089249879705 12.1689813673041  6.81732250360892 11.9225357487201  L 1.45880783028298 6.50042588528555  L 6.81730989320278 1.0762360427785  C 7.0608798883909 0.829764902978894  7.0608798883909 0.431302163585627  6.81730989320278 0.18484378439382  C 6.57373989801465 -0.0616145947979305  6.17992952370821 -0.0616145947979305  5.93639735973858 0.18484378439382  L 0.178044537956566 6.01159252140042  Z " fill-rule="nonzero" fill="#ffffff" stroke="none" transform="matrix(1 0 0 1 397 327 )" />
  </g>
</svg>