<?xml version="1.0" encoding="utf-8"?>
<svg version="1.1" xmlns:xlink="http://www.w3.org/1999/xlink" width="16px" height="16px" xmlns="http://www.w3.org/2000/svg">
  <g transform="matrix(1 0 0 1 0 -2 )">
    <path d="M 16 1.77778125  C 16 0.799999999999997  15.2 0  14.22221875 0  L 1.77778125 0  C 0.800000000000011 0  0 0.799999999999997  0 1.77778125  L 0 14.22221875  C 0 15.2  0.800000000000011 16  1.77778125 16  L 14.22221875 16  C 15.2 16  16 15.2  16 14.22221875  L 16 1.77778125  Z M 12.711125 5.73332812499999  L 7.33331250000001 10.97778125  C 7.244421875 11.066671875  7.11109375000001 11.111109375  6.97776562499999 11.111109375  C 6.84442187499999 11.111109375  6.71109375 11.066671875  6.622203125 10.97778125  L 3.68890625 8.13332812499999  C 3.51112499999999 7.95556249999999  3.51112499999999 7.64443750000001  3.68890625 7.46667187500003  C 3.86668749999998 7.28889062500002  4.17779687500001 7.28889062500002  4.40001562500001 7.46667187500003  L 6.97778124999999 10  L 12 5.11110937499998  C 12.17778125 4.93332812499997  12.488890625 4.93332812499997  12.711109375 5.11110937499998  C 12.933328125 5.2  12.933328125 5.51110937499998  12.711109375 5.73332812499999  Z " fill-rule="nonzero" fill="#1e9fff" stroke="none" transform="matrix(1 0 0 1 0 2 )" />
  </g>
</svg>