<?xml version="1.0" encoding="utf-8"?>
<svg version="1.1" xmlns:xlink="http://www.w3.org/1999/xlink" width="14px" height="14px" xmlns="http://www.w3.org/2000/svg">
  <g transform="matrix(1 0 0 1 -686 -181 )">
    <path d="M 13.8298675709182 13.830030159743  C 14.0498717458873 13.6034037060671  14.0614509083488 13.23731481482  13.8356571521489 13.0106883758984  L 11.7803550214269 10.9478065483017  C 13.9767849382342 8.29341631916121  13.7960796896202 4.39644454815258  11.3635050111117 1.9582905524895  C 10.116886119801 0.702552317416502  8.42274613641289 -0.00228245486195073  6.65657361829859 0  C 4.9544360749533 0  3.24650893567715 0.650830237145915  1.94964224018556 1.9582905524895  C -0.649880746728539 4.56740023598265  -0.649880746728539 8.79776070460018  1.94964224018556 11.4068703880933  C 3.25229853160801 12.7143307034369  4.9544360749533 13.3651553875117  6.65657361829859 13.3651553875117  C 8.1908132471517 13.3651553875117  9.72505287600481 12.8305493964947  10.9640237444888 11.7729592793404  L 13.0135362939801 13.830030159743  C 13.23933005018 14.056656613419  13.609863395949 14.056656613419  13.8298675709182 13.830030159743  Z M 6.65657361829859 12.1971575097392  C 5.18601941238396 12.202968442179  3.80809853556151 11.6276859093295  2.76597351712365 10.5875285894944  C 0.623827623840088 8.43748274579283  0.623827623840088 4.93348911247539  2.76597351712365 2.77763235108845  C 3.79610827086982 1.73964679293659  5.19689167927945 1.15801895042437  6.65657361829859 1.16219249840386  C 8.12712782421324 1.16219249840386  9.50504870103569 1.73747503125334  10.5471737341737 2.77763235108845  C 12.6661612878341 4.90443445027669  12.6893196274572 8.33869686480852  10.6224383195736 10.5003645733895  C 10.5992799799505 10.5177973707088  10.5761216550275 10.5236083179028  10.5587528966352 10.5410411152221  C 10.535594557012 10.5642848597354  10.5240153945506 10.5933395219341  10.5066466508583 10.6165832664474  C 9.48074119888712 11.6317608391911  8.09723368605507 12.199733530018  6.65657361829859 12.1971575097392  Z " fill-rule="nonzero" fill="#8a8a8a" stroke="none" transform="matrix(1 0 0 1 686 181 )" />
  </g>
</svg>