<?xml version="1.0" encoding="utf-8"?>
<svg version="1.1" xmlns:xlink="http://www.w3.org/1999/xlink" width="21px" height="16px" xmlns="http://www.w3.org/2000/svg">
  <g transform="matrix(1 0 0 1 -942 -394 )">
    <path d="M 9.79372197309417 12  L 10.4529147982063 12  L 11.8183856502242 10.6818181818182  L 10.0291479820628 8.95454545454545  L 8.66367713004484 10.2727272727273  L 8.66367713004484 10.9090909090909  L 9.79372197309417 10.9090909090909  L 9.79372197309417 12  Z M 15.6205156950673 4.19318181818182  C 15.7539237668161 4.06439393939394  15.7578475336323 3.93939393939394  15.6322869955157 3.81818181818182  C 15.5067264573991 3.6969696969697  15.3772421524664 3.70075757575757  15.2438340807175 3.82954545454546  L 11.1238789237668 7.80681818181818  C 10.9904708520179 7.93560606060606  10.9865470852018 8.06060606060606  11.1121076233184 8.18181818181818  C 11.237668161435 8.3030303030303  11.3671524663677 8.29924242424242  11.5005605381166 8.17045454545455  L 15.6205156950673 4.19318181818182  Z M 16.3385650224215 10.2386363636364  C 16.4955156950673 10.2992424242424  16.5739910313901 10.4090909090909  16.5739910313901 10.5681818181818  L 16.5739910313901 12.7272727272727  C 16.5739910313901 13.6287878787879  16.242432735426 14.3996212121212  15.5793161434978 15.0397727272727  C 14.9161995515695 15.6799242424242  14.1177130044843 16  13.1838565022422 16  L 3.39013452914798 16  C 2.45627802690583 16  1.65779147982063 15.6799242424242  0.994674887892377 15.0397727272727  C 0.331558295964126 14.3996212121212  0 13.6287878787879  0 12.7272727272727  L 0 3.27272727272727  C 0 2.37121212121212  0.331558295964126 1.60037878787879  0.994674887892377 0.960227272727273  C 1.65779147982063 0.320075757575756  2.45627802690583 0  3.39013452914798 0  L 13.1838565022422 0  C 13.6782511210762 0  14.137331838565 0.0946969696969688  14.5610986547085 0.284090909090908  C 14.6788116591928 0.337121212121211  14.7494394618834 0.424242424242424  14.7729820627803 0.545454545454545  C 14.7965246636771 0.674242424242424  14.7612107623318 0.784090909090908  14.6670403587444 0.875  L 14.0902466367713 1.43181818181818  C 13.9803811659193 1.53787878787879  13.8548206278027 1.56818181818182  13.7135650224215 1.52272727272727  C 13.5330717488789 1.47727272727273  13.3565022421525 1.45454545454546  13.1838565022422 1.45454545454546  L 3.39013452914798 1.45454545454546  C 2.87219730941704 1.45454545454546  2.42881165919283 1.63257575757576  2.05997757847534 1.98863636363636  C 1.69114349775785 2.34469696969697  1.5067264573991 2.77272727272727  1.5067264573991 3.27272727272727  L 1.5067264573991 12.7272727272727  C 1.5067264573991 13.2272727272727  1.69114349775785 13.655303030303  2.05997757847534 14.0113636363636  C 2.42881165919283 14.3674242424242  2.87219730941704 14.5454545454545  3.39013452914798 14.5454545454545  L 13.1838565022422 14.5454545454545  C 13.7017937219731 14.5454545454545  14.1451793721973 14.3674242424242  14.5140134529148 14.0113636363636  C 14.8828475336323 13.655303030303  15.067264573991 13.2272727272727  15.067264573991 12.7272727272727  L 15.067264573991 11.2954545454545  C 15.067264573991 11.1969696969697  15.1025784753363 11.1136363636364  15.1732062780269 11.0454545454545  L 15.9265695067265 10.3181818181818  C 16.0442825112108 10.2045454545455  16.1816143497758 10.1780303030303  16.3385650224215 10.2386363636364  Z M 7.53363228699552 9.81818181818182  L 15.4439461883408 2.18181818181818  L 18.8340807174888 5.45454545454546  L 10.9237668161435 13.0909090909091  L 7.53363228699552 13.0909090909091  L 7.53363228699552 9.81818181818182  Z M 21 2.90909090909091  C 21 3.21212121212121  20.890134529148 3.46969696969697  20.6704035874439 3.68181818181818  L 19.5874439461883 4.72727272727273  L 16.1973094170404 1.45454545454546  L 17.280269058296 0.409090909090908  C 17.5 0.196969696969695  17.7668161434978 0.0909090909090917  18.0807174887892 0.0909090909090917  C 18.3946188340807 0.0909090909090917  18.6614349775785 0.196969696969695  18.8811659192825 0.409090909090908  L 20.6704035874439 2.13636363636364  C 20.890134529148 2.34848484848485  21 2.60606060606061  21 2.90909090909091  Z " fill-rule="nonzero" fill="#00ccd9" stroke="none" transform="matrix(1 0 0 1 942 394 )" />
  </g>
</svg>