<?xml version="1.0" standalone="no"?><!DOCTYPE svg PUBLIC "-//W3C//DTD SVG 1.1//EN" "http://www.w3.org/Graphics/SVG/1.1/DTD/svg11.dtd"><svg t="1602749763219" class="icon" viewBox="0 0 1024 1024" version="1.1" xmlns="http://www.w3.org/2000/svg" p-id="4054" xmlns:xlink="http://www.w3.org/1999/xlink" width="64" height="64"><defs><style type="text/css"></style></defs><path d="M448.352 762.6624a26.5664 26.5664 0 0 1-10.5664 10.8224l-89.152 49.472c-12.192 6.7648-26.9888 2.3424-33.0496-9.8752a25.0048 25.0048 0 0 1-2.5792-10.688l-1.728-101.952c-0.0896-5.248 1.408-10.2912 4.0832-14.56l0.4736-0.8512 268.8-465.5744a25.6 25.6 0 0 1 34.9696-9.3696l88.6848 51.2a25.6 25.6 0 0 1 9.3696 34.9696l-268.8 465.5744a26.0544 26.0544 0 0 1-0.5056 0.832z m240.3648-653.088l72.0576 41.6a35.2 35.2 0 0 1 12.8832 48.0832l-12.8 22.1696a35.2 35.2 0 0 1-48.0832 12.8896l-72.0576-41.6a35.2 35.2 0 0 1-12.8832-48.0896l12.8-22.1696a35.2 35.2 0 0 1 48.0832-12.8832zM160 864h691.2a32 32 0 1 1 0 64H160a32 32 0 1 1 0-64z" fill="#e0620d" p-id="4055"></path></svg>