<?xml version="1.0" standalone="no"?><!DOCTYPE svg PUBLIC "-//W3C//DTD SVG 1.1//EN" "http://www.w3.org/Graphics/SVG/1.1/DTD/svg11.dtd"><svg t="1602752647864" class="icon" viewBox="0 0 1764 1024" version="1.1" xmlns="http://www.w3.org/2000/svg" p-id="2927" xmlns:xlink="http://www.w3.org/1999/xlink" width="55.125" height="32"><defs><style type="text/css"></style></defs><path d="M756.474311 818.665244C749.078756 818.665244 741.512533 817.243022 734.230756 814.114133 617.551644 764.563911 542.060089 650.331022 542.060089 523.184356 542.060089 348.990578 683.3152 207.280356 856.940089 207.280356 1030.508089 207.280356 1171.706311 348.990578 1171.706311 523.184356 1171.706311 648.3968 1099.855644 762.345244 988.580978 813.431467 959.965867 826.5728 926.173867 814.057244 913.089422 785.499022 900.004978 756.997689 912.520533 723.205689 941.078756 710.064356 1012.076089 677.467022 1057.928533 604.137244 1057.928533 523.184356 1057.928533 411.739022 967.759644 321.058133 856.940089 321.058133 746.063644 321.058133 655.837867 411.739022 655.837867 523.184356 655.837867 604.592356 704.079644 677.694578 778.774756 709.438578 807.674311 721.726578 821.156978 755.120356 808.868978 784.019911 799.652978 805.637689 778.604089 818.665244 756.474311 818.665244" p-id="2928" fill="#ffffff"></path><path d="M857.8048 1012.775822C498.8928 1012.775822 196.073244 765.991822 47.479467 618.877156 16.873244 588.555378-0.022756 548.619378-0.022756 506.407822-0.022756 464.139378 16.873244 424.203378 47.479467 393.8816 196.073244 246.766933 498.8928-0.017067 857.8048-0.017067 1216.7168-0.017067 1519.536356 246.766933 1668.073244 393.8816 1698.679467 424.203378 1715.575467 464.139378 1715.575467 506.407822 1715.575467 548.619378 1698.679467 588.555378 1668.073244 618.877156 1640.425244 646.2976 1615.963022 670.020267 1574.434133 704.950044 1550.370133 725.1456 1514.473244 722.0736 1494.277689 698.0096 1474.082133 673.9456 1477.154133 638.048711 1501.218133 617.853156 1539.561244 585.597156 1561.349689 564.434489 1588.030578 538.038044 1596.905244 529.220267 1601.797689 518.013156 1601.797689 506.407822 1601.797689 494.802489 1596.905244 483.538489 1588.030578 474.7776 1478.405689 366.2336 1187.874133 113.760711 857.8048 113.760711 527.735467 113.760711 237.147022 366.2336 127.579022 474.7776 118.704356 483.538489 113.755022 494.802489 113.755022 506.407822 113.755022 518.013156 118.704356 529.220267 127.579022 537.981156 237.147022 646.582044 527.735467 898.998044 857.8048 898.998044 1027.618133 898.998044 1176.155022 849.5616 1339.369244 738.742044 1365.424356 720.992711 1400.809244 727.819378 1418.387911 753.8176 1436.080356 779.815822 1429.310578 815.143822 1403.312356 832.836267 1222.576356 955.602489 1049.179022 1012.775822 857.8048 1012.775822" p-id="2929" fill="#ffffff"></path></svg>