<?xml version="1.0" encoding="utf-8"?>
<svg version="1.1" xmlns:xlink="http://www.w3.org/1999/xlink" width="16px" height="16px" xmlns="http://www.w3.org/2000/svg">
  <g transform="matrix(1 0 0 1 -121 -244 )">
    <path d="M 16 8  C 16 12.4181818125  12.4181818125 16  8 16  C 3.58181818749999 16  0 12.4181818125  0 8  C 0 3.58181818749999  3.58181818749999 0  8 0  C 12.4181818125 0  16 3.58181818749999  16 8  Z M 1.21212121875001 8  C 1.21212121875001 11.748848484375  4.251151515625 14.78787878125  8 14.78787878125  C 11.748848484375 14.78787878125  14.78787878125 11.748848484375  14.78787878125 8  C 14.78787878125 4.251151515625  11.748848484375 1.21212121875001  8 1.21212121875001  C 4.251151515625 1.21212121875001  1.21212121875001 4.251151515625  1.21212121875001 8  Z " fill-rule="nonzero" fill="#1890ff" stroke="none" transform="matrix(1 0 0 1 121 244 )" />
  </g>
</svg>