<?xml version="1.0" encoding="utf-8"?>
<svg version="1.1" xmlns:xlink="http://www.w3.org/1999/xlink" width="153px" height="30px" viewBox="1270 237  153 30" xmlns="http://www.w3.org/2000/svg">
  <path d="M 1271 240  A 2 2 0 0 1 1273 238 L 1420 238  A 2 2 0 0 1 1422 240 L 1422 264  A 2 2 0 0 1 1420 266 L 1273 266  A 2 2 0 0 1 1271 264 L 1271 240  Z " fill-rule="nonzero" fill="#ffffff" stroke="none" />
  <path d="M 1270.5 240  A 2.5 2.5 0 0 1 1273 237.5 L 1420 237.5  A 2.5 2.5 0 0 1 1422.5 240 L 1422.5 264  A 2.5 2.5 0 0 1 1420 266.5 L 1273 266.5  A 2.5 2.5 0 0 1 1270.5 264 L 1270.5 240  Z " stroke-width="1" stroke="#797979" fill="none" stroke-opacity="0.533333333333333" />
</svg>