<?xml version="1.0" standalone="no"?><!DOCTYPE svg PUBLIC "-//W3C//DTD SVG 1.1//EN" "http://www.w3.org/Graphics/SVG/1.1/DTD/svg11.dtd"><svg t="1602489358742" class="icon" viewBox="0 0 1024 1024" version="1.1" xmlns="http://www.w3.org/2000/svg" p-id="4992" xmlns:xlink="http://www.w3.org/1999/xlink" width="32" height="32"><defs><style type="text/css"></style></defs><path d="M437.797 412.32c24.363 0 45.592-8.622 63.686-25.859 18.057-17.206 27.139-37.838 27.139-61.669v-206.99c0-23.831-9.044-44.388-27.139-61.664-18.094-17.281-39.323-25.897-63.686-25.854H224.503c-24.367 0-45.379 8.622-63.046 25.865-17.633 17.199-26.494 37.832-26.494 61.664v207.102c0 23.831 8.834 44.383 26.494 61.652 17.667 17.27 38.679 25.897 63.046 25.876l213.294-0.123z m78.013 258.614H472.5a196.426 196.426 0 0 0-18.055-43.308l31.2-31.205c14.001-14.023 14.001-36.737 0-50.76L460.22 520.23c-14.028-14.001-36.737-14.001-50.764 0l-31.738 31.737a197.636 197.636 0 0 0-40.478-16.435v-43.308a35.673 35.673 0 0 0-10.448-25.24 35.69 35.69 0 0 0-25.242-10.455h-35.696c-19.71 0-35.69 15.98-35.69 35.696v43.308a197.384 197.384 0 0 0-41.887 17.211l-32.806-32.481c-14.023-14.001-36.737-14.001-50.76 0L79.28 545.705c-14.001 14.022-14.001 36.736 0 50.758l32.584 32.53a196.963 196.963 0 0 0-17.206 41.898H51.35c-19.71 0-35.69 15.98-35.69 35.69v35.679c0 19.716 15.98 35.696 35.69 35.696h43.308a197.666 197.666 0 0 0 16.349 40.5l-31.738 31.737c-14.001 14.023-14.001 36.737 0 50.76l25.432 25.431c14.022 14.001 36.736 14.001 50.758 0l31.205-31.207a190.569 190.569 0 0 0 43.31 18.057v43.314c0 19.711 15.979 35.69 35.694 35.69h35.69c19.689-0.006 35.653-15.958 35.669-35.646v-43.31a197.06 197.06 0 0 0 41.898-17.204l30.35 30.349c14.027 14.001 36.736 14.001 50.764 0l25.431-25.425c14.001-14.029 14.001-36.737 0-50.765l-30.349-30.349a197.953 197.953 0 0 0 17.2-41.888h43.308a35.703 35.703 0 0 0 25.231-10.48 35.682 35.682 0 0 0 10.426-25.258v-35.636a35.378 35.378 0 0 0-10.281-25.257 35.398 35.398 0 0 0-25.195-10.435zM282.539 830.581c-59.202 0.006-107.196-47.977-107.201-107.174-0.006-59.195 47.978-107.19 107.174-107.194 59.202-0.011 107.196 47.977 107.201 107.173a107.172 107.172 0 0 1-107.174 107.195z m0 0" fill="#888888" p-id="4993"></path><path d="M282.539 669.872c-21.69-0.028-41.259 13.019-49.572 33.054-8.312 20.031-3.731 43.103 11.609 58.438s38.407 19.911 58.443 11.598c20.029-8.318 33.076-27.886 33.043-49.576-0.026-29.557-23.977-53.514-53.54-53.542l0.017 0.028z m634.115 204.853c24.369 0 45.597-8.622 63.692-25.865 18.057-17.199 27.139-37.832 27.139-61.653v-207c0-23.831-9.045-44.383-27.139-61.658-18.094-17.27-39.323-25.891-63.692-25.859H703.349c-24.363 0-45.374 8.622-63.041 25.859-17.665 17.161-26.554 37.827-26.554 61.658v207.097c0 23.831 8.834 44.383 26.499 61.658 17.661 17.271 38.678 25.893 63.041 25.86l213.36-0.097z m0-462.405c24.369 0 45.597-8.622 63.692-25.859 18.057-17.206 27.139-37.838 27.139-61.669v-206.99c0-23.831-9.045-44.388-27.139-61.664-18.094-17.281-39.323-25.897-63.692-25.854H703.349c-24.363 0-45.374 8.622-63.041 25.865-17.665 17.199-26.554 37.832-26.554 61.653v207.114c0 23.831 8.834 44.383 26.499 61.652 17.661 17.27 38.694 25.897 63.095 25.876l213.306-0.124z m0 0" fill="#888888" p-id="4994"></path></svg>