<?xml version="1.0" encoding="utf-8"?>
<svg version="1.1" xmlns:xlink="http://www.w3.org/1999/xlink" width="12px" height="12px" viewBox="348 492  12 12" xmlns="http://www.w3.org/2000/svg">
  <path d="M 348.5 494  A 1.5 1.5 0 0 1 350 492.5 L 358 492.5  A 1.5 1.5 0 0 1 359.5 494 L 359.5 502  A 1.5 1.5 0 0 1 358 503.5 L 350 503.5  A 1.5 1.5 0 0 1 348.5 502 L 348.5 494  Z " fill-rule="nonzero" fill="#ffffff" stroke="none" />
  <path d="M 348.5 494  A 1.5 1.5 0 0 1 350 492.5 L 358 492.5  A 1.5 1.5 0 0 1 359.5 494 L 359.5 502  A 1.5 1.5 0 0 1 358 503.5 L 350 503.5  A 1.5 1.5 0 0 1 348.5 502 L 348.5 494  Z " stroke-width="1" stroke="#797979" fill="none" />
  <path d="M 350.571428571429 498  L 353.142857142857 500.571428571429  L 357.428571428571 494.571428571429  " stroke-width="2.57142857142857" stroke="#797979" fill="none" />
</svg>