<?xml version="1.0" encoding="utf-8"?>
<svg version="1.1" xmlns:xlink="http://www.w3.org/1999/xlink" width="12px" height="12px" viewBox="350 1126  12 12" xmlns="http://www.w3.org/2000/svg">
  <path d="M 350.5 1128  A 1.5 1.5 0 0 1 352 1126.5 L 360 1126.5  A 1.5 1.5 0 0 1 361.5 1128 L 361.5 1136  A 1.5 1.5 0 0 1 360 1137.5 L 352 1137.5  A 1.5 1.5 0 0 1 350.5 1136 L 350.5 1128  Z " fill-rule="nonzero" fill="#f0f0f0" stroke="none" />
  <path d="M 350.5 1128  A 1.5 1.5 0 0 1 352 1126.5 L 360 1126.5  A 1.5 1.5 0 0 1 361.5 1128 L 361.5 1136  A 1.5 1.5 0 0 1 360 1137.5 L 352 1137.5  A 1.5 1.5 0 0 1 350.5 1136 L 350.5 1128  Z " stroke-width="1" stroke="#797979" fill="none" />
</svg>