<?xml version="1.0" encoding="utf-8"?>
<svg version="1.1" xmlns:xlink="http://www.w3.org/1999/xlink" width="77px" height="31px" viewBox="623 237  77 31" xmlns="http://www.w3.org/2000/svg">
  <path d="M 624 242  A 4 4 0 0 1 628 238 L 695 238  A 4 4 0 0 1 699 242 L 699 263  A 4 4 0 0 1 695 267 L 628 267  A 4 4 0 0 1 624 263 L 624 242  Z " fill-rule="nonzero" fill="#f0f0f0" stroke="none" />
  <path d="M 623.5 242  A 4.5 4.5 0 0 1 628 237.5 L 695 237.5  A 4.5 4.5 0 0 1 699.5 242 L 699.5 263  A 4.5 4.5 0 0 1 695 267.5 L 628 267.5  A 4.5 4.5 0 0 1 623.5 263 L 623.5 242  Z " stroke-width="1" stroke="#d7d7d7" fill="none" stroke-opacity="0.996078431372549" />
</svg>