<?xml version="1.0" encoding="utf-8"?>
<svg version="1.1" xmlns:xlink="http://www.w3.org/1999/xlink" width="12px" height="12px" viewBox="350 1056  12 12" xmlns="http://www.w3.org/2000/svg">
  <path d="M 350.5 1058  A 1.5 1.5 0 0 1 352 1056.5 L 360 1056.5  A 1.5 1.5 0 0 1 361.5 1058 L 361.5 1066  A 1.5 1.5 0 0 1 360 1067.5 L 352 1067.5  A 1.5 1.5 0 0 1 350.5 1066 L 350.5 1058  Z " fill-rule="nonzero" fill="#ffffff" stroke="none" />
  <path d="M 350.5 1058  A 1.5 1.5 0 0 1 352 1056.5 L 360 1056.5  A 1.5 1.5 0 0 1 361.5 1058 L 361.5 1066  A 1.5 1.5 0 0 1 360 1067.5 L 352 1067.5  A 1.5 1.5 0 0 1 350.5 1066 L 350.5 1058  Z " stroke-width="1" stroke="#797979" fill="none" />
</svg>