<?xml version="1.0" encoding="utf-8"?>
<svg version="1.1" xmlns:xlink="http://www.w3.org/1999/xlink" width="12px" height="12px" viewBox="350 1217  12 12" xmlns="http://www.w3.org/2000/svg">
  <path d="M 350.5 1219  A 1.5 1.5 0 0 1 352 1217.5 L 360 1217.5  A 1.5 1.5 0 0 1 361.5 1219 L 361.5 1227  A 1.5 1.5 0 0 1 360 1228.5 L 352 1228.5  A 1.5 1.5 0 0 1 350.5 1227 L 350.5 1219  Z " fill-rule="nonzero" fill="#ffffff" stroke="none" />
  <path d="M 350.5 1219  A 1.5 1.5 0 0 1 352 1217.5 L 360 1217.5  A 1.5 1.5 0 0 1 361.5 1219 L 361.5 1227  A 1.5 1.5 0 0 1 360 1228.5 L 352 1228.5  A 1.5 1.5 0 0 1 350.5 1227 L 350.5 1219  Z " stroke-width="1" stroke="#797979" fill="none" />
  <path d="M 352.571428571429 1223  L 355.142857142857 1225.57142857143  L 359.428571428571 1219.57142857143  " stroke-width="2.57142857142857" stroke="#797979" fill="none" />
</svg>