<?xml version="1.0" encoding="utf-8"?>
<svg version="1.1" xmlns:xlink="http://www.w3.org/1999/xlink" width="12px" height="12px" viewBox="348 444  12 12" xmlns="http://www.w3.org/2000/svg">
  <path d="M 348.5 446  A 1.5 1.5 0 0 1 350 444.5 L 358 444.5  A 1.5 1.5 0 0 1 359.5 446 L 359.5 454  A 1.5 1.5 0 0 1 358 455.5 L 350 455.5  A 1.5 1.5 0 0 1 348.5 454 L 348.5 446  Z " fill-rule="nonzero" fill="#ffffff" stroke="none" />
  <path d="M 348.5 446  A 1.5 1.5 0 0 1 350 444.5 L 358 444.5  A 1.5 1.5 0 0 1 359.5 446 L 359.5 454  A 1.5 1.5 0 0 1 358 455.5 L 350 455.5  A 1.5 1.5 0 0 1 348.5 454 L 348.5 446  Z " stroke-width="1" stroke="#797979" fill="none" />
</svg>