<?xml version="1.0" encoding="utf-8"?>
<svg version="1.1" xmlns:xlink="http://www.w3.org/1999/xlink" width="12px" height="12px" viewBox="348 682  12 12" xmlns="http://www.w3.org/2000/svg">
  <path d="M 348.5 684  A 1.5 1.5 0 0 1 350 682.5 L 358 682.5  A 1.5 1.5 0 0 1 359.5 684 L 359.5 692  A 1.5 1.5 0 0 1 358 693.5 L 350 693.5  A 1.5 1.5 0 0 1 348.5 692 L 348.5 684  Z " fill-rule="nonzero" fill="#f0f0f0" stroke="none" />
  <path d="M 348.5 684  A 1.5 1.5 0 0 1 350 682.5 L 358 682.5  A 1.5 1.5 0 0 1 359.5 684 L 359.5 692  A 1.5 1.5 0 0 1 358 693.5 L 350 693.5  A 1.5 1.5 0 0 1 348.5 692 L 348.5 684  Z " stroke-width="1" stroke="#797979" fill="none" />
</svg>