<?xml version="1.0" encoding="utf-8"?>
<svg version="1.1" xmlns:xlink="http://www.w3.org/1999/xlink" width="12px" height="12px" viewBox="348 635  12 12" xmlns="http://www.w3.org/2000/svg">
  <path d="M 348.5 637  A 1.5 1.5 0 0 1 350 635.5 L 358 635.5  A 1.5 1.5 0 0 1 359.5 637 L 359.5 645  A 1.5 1.5 0 0 1 358 646.5 L 350 646.5  A 1.5 1.5 0 0 1 348.5 645 L 348.5 637  Z " fill-rule="nonzero" fill="#ffffff" stroke="none" />
  <path d="M 348.5 637  A 1.5 1.5 0 0 1 350 635.5 L 358 635.5  A 1.5 1.5 0 0 1 359.5 637 L 359.5 645  A 1.5 1.5 0 0 1 358 646.5 L 350 646.5  A 1.5 1.5 0 0 1 348.5 645 L 348.5 637  Z " stroke-width="1" stroke="#797979" fill="none" />
</svg>