<?xml version="1.0" encoding="utf-8"?>
<svg version="1.1" xmlns:xlink="http://www.w3.org/1999/xlink" width="12px" height="12px" viewBox="348 730  12 12" xmlns="http://www.w3.org/2000/svg">
  <path d="M 348.5 732  A 1.5 1.5 0 0 1 350 730.5 L 358 730.5  A 1.5 1.5 0 0 1 359.5 732 L 359.5 740  A 1.5 1.5 0 0 1 358 741.5 L 350 741.5  A 1.5 1.5 0 0 1 348.5 740 L 348.5 732  Z " fill-rule="nonzero" fill="#ffffff" stroke="none" />
  <path d="M 348.5 732  A 1.5 1.5 0 0 1 350 730.5 L 358 730.5  A 1.5 1.5 0 0 1 359.5 732 L 359.5 740  A 1.5 1.5 0 0 1 358 741.5 L 350 741.5  A 1.5 1.5 0 0 1 348.5 740 L 348.5 732  Z " stroke-width="1" stroke="#797979" fill="none" />
  <path d="M 350.571428571429 736  L 353.142857142857 738.571428571429  L 357.428571428571 732.571428571429  " stroke-width="2.57142857142857" stroke="#797979" fill="none" />
</svg>