<?xml version="1.0" encoding="utf-8"?>
<svg version="1.1" xmlns:xlink="http://www.w3.org/1999/xlink" width="12px" height="12px" viewBox="348 587  12 12" xmlns="http://www.w3.org/2000/svg">
  <path d="M 348.5 589  A 1.5 1.5 0 0 1 350 587.5 L 358 587.5  A 1.5 1.5 0 0 1 359.5 589 L 359.5 597  A 1.5 1.5 0 0 1 358 598.5 L 350 598.5  A 1.5 1.5 0 0 1 348.5 597 L 348.5 589  Z " fill-rule="nonzero" fill="#ffffff" stroke="none" />
  <path d="M 348.5 589  A 1.5 1.5 0 0 1 350 587.5 L 358 587.5  A 1.5 1.5 0 0 1 359.5 589 L 359.5 597  A 1.5 1.5 0 0 1 358 598.5 L 350 598.5  A 1.5 1.5 0 0 1 348.5 597 L 348.5 589  Z " stroke-width="1" stroke="#797979" fill="none" />
  <path d="M 350.571428571429 593  L 353.142857142857 595.571428571429  L 357.428571428571 589.571428571429  " stroke-width="2.57142857142857" stroke="#797979" fill="none" />
</svg>