<?xml version="1.0" encoding="utf-8"?>
<svg version="1.1" xmlns:xlink="http://www.w3.org/1999/xlink" width="137px" height="31px" viewBox="773 237  137 31" xmlns="http://www.w3.org/2000/svg">
  <path d="M 774 242  A 4 4 0 0 1 778 238 L 905 238  A 4 4 0 0 1 909 242 L 909 263  A 4 4 0 0 1 905 267 L 778 267  A 4 4 0 0 1 774 263 L 774 242  Z " fill-rule="nonzero" fill="#f0f0f0" stroke="none" />
  <path d="M 773.5 242  A 4.5 4.5 0 0 1 778 237.5 L 905 237.5  A 4.5 4.5 0 0 1 909.5 242 L 909.5 263  A 4.5 4.5 0 0 1 905 267.5 L 778 267.5  A 4.5 4.5 0 0 1 773.5 263 L 773.5 242  Z " stroke-width="1" stroke="#d7d7d7" fill="none" stroke-opacity="0.996078431372549" />
</svg>