<?xml version="1.0" encoding="utf-8"?>
<svg version="1.1" xmlns:xlink="http://www.w3.org/1999/xlink" width="12px" height="12px" viewBox="351 552  12 12" xmlns="http://www.w3.org/2000/svg">
  <path d="M 351.5 554  A 1.5 1.5 0 0 1 353 552.5 L 361 552.5  A 1.5 1.5 0 0 1 362.5 554 L 362.5 562  A 1.5 1.5 0 0 1 361 563.5 L 353 563.5  A 1.5 1.5 0 0 1 351.5 562 L 351.5 554  Z " fill-rule="nonzero" fill="#ffffff" stroke="none" />
  <path d="M 351.5 554  A 1.5 1.5 0 0 1 353 552.5 L 361 552.5  A 1.5 1.5 0 0 1 362.5 554 L 362.5 562  A 1.5 1.5 0 0 1 361 563.5 L 353 563.5  A 1.5 1.5 0 0 1 351.5 562 L 351.5 554  Z " stroke-width="1" stroke="#797979" fill="none" />
</svg>