<?xml version="1.0" encoding="utf-8"?>
<svg version="1.1" xmlns:xlink="http://www.w3.org/1999/xlink" width="12px" height="12px" viewBox="351 591  12 12" xmlns="http://www.w3.org/2000/svg">
  <path d="M 351.5 593  A 1.5 1.5 0 0 1 353 591.5 L 361 591.5  A 1.5 1.5 0 0 1 362.5 593 L 362.5 601  A 1.5 1.5 0 0 1 361 602.5 L 353 602.5  A 1.5 1.5 0 0 1 351.5 601 L 351.5 593  Z " fill-rule="nonzero" fill="#ffffff" stroke="none" />
  <path d="M 351.5 593  A 1.5 1.5 0 0 1 353 591.5 L 361 591.5  A 1.5 1.5 0 0 1 362.5 593 L 362.5 601  A 1.5 1.5 0 0 1 361 602.5 L 353 602.5  A 1.5 1.5 0 0 1 351.5 601 L 351.5 593  Z " stroke-width="1" stroke="#797979" fill="none" />
</svg>