<?xml version="1.0" encoding="utf-8"?>
<svg version="1.1" xmlns:xlink="http://www.w3.org/1999/xlink" width="12px" height="12px" viewBox="351 694  12 12" xmlns="http://www.w3.org/2000/svg">
  <path d="M 351.5 696  A 1.5 1.5 0 0 1 353 694.5 L 361 694.5  A 1.5 1.5 0 0 1 362.5 696 L 362.5 704  A 1.5 1.5 0 0 1 361 705.5 L 353 705.5  A 1.5 1.5 0 0 1 351.5 704 L 351.5 696  Z " fill-rule="nonzero" fill="#ffffff" stroke="none" />
  <path d="M 351.5 696  A 1.5 1.5 0 0 1 353 694.5 L 361 694.5  A 1.5 1.5 0 0 1 362.5 696 L 362.5 704  A 1.5 1.5 0 0 1 361 705.5 L 353 705.5  A 1.5 1.5 0 0 1 351.5 704 L 351.5 696  Z " stroke-width="1" stroke="#797979" fill="none" />
  <path d="M 353.571428571429 700  L 356.142857142857 702.571428571429  L 360.428571428571 696.571428571429  " stroke-width="2.57142857142857" stroke="#797979" fill="none" />
</svg>