<?xml version="1.0" encoding="utf-8"?>
<svg version="1.1" xmlns:xlink="http://www.w3.org/1999/xlink" width="12px" height="12px" viewBox="351 796  12 12" xmlns="http://www.w3.org/2000/svg">
  <path d="M 351.5 798  A 1.5 1.5 0 0 1 353 796.5 L 361 796.5  A 1.5 1.5 0 0 1 362.5 798 L 362.5 806  A 1.5 1.5 0 0 1 361 807.5 L 353 807.5  A 1.5 1.5 0 0 1 351.5 806 L 351.5 798  Z " fill-rule="nonzero" fill="#f0f0f0" stroke="none" />
  <path d="M 351.5 798  A 1.5 1.5 0 0 1 353 796.5 L 361 796.5  A 1.5 1.5 0 0 1 362.5 798 L 362.5 806  A 1.5 1.5 0 0 1 361 807.5 L 353 807.5  A 1.5 1.5 0 0 1 351.5 806 L 351.5 798  Z " stroke-width="1" stroke="#797979" fill="none" />
</svg>