<?xml version="1.0" encoding="utf-8"?>
<svg version="1.1" xmlns:xlink="http://www.w3.org/1999/xlink" width="12px" height="12px" viewBox="351 899  12 12" xmlns="http://www.w3.org/2000/svg">
  <path d="M 351.5 901  A 1.5 1.5 0 0 1 353 899.5 L 361 899.5  A 1.5 1.5 0 0 1 362.5 901 L 362.5 909  A 1.5 1.5 0 0 1 361 910.5 L 353 910.5  A 1.5 1.5 0 0 1 351.5 909 L 351.5 901  Z " fill-rule="nonzero" fill="#ffffff" stroke="none" />
  <path d="M 351.5 901  A 1.5 1.5 0 0 1 353 899.5 L 361 899.5  A 1.5 1.5 0 0 1 362.5 901 L 362.5 909  A 1.5 1.5 0 0 1 361 910.5 L 353 910.5  A 1.5 1.5 0 0 1 351.5 909 L 351.5 901  Z " stroke-width="1" stroke="#797979" fill="none" />
  <path d="M 353.571428571429 905  L 356.142857142857 907.571428571429  L 360.428571428571 901.571428571429  " stroke-width="2.57142857142857" stroke="#797979" fill="none" />
</svg>