<?xml version="1.0" standalone="no"?><!DOCTYPE svg PUBLIC "-//W3C//DTD SVG 1.1//EN" "http://www.w3.org/Graphics/SVG/1.1/DTD/svg11.dtd"><svg t="1603436285551" class="icon" viewBox="0 0 1024 1024" version="1.1" xmlns="http://www.w3.org/2000/svg" p-id="5930" xmlns:xlink="http://www.w3.org/1999/xlink" width="32" height="32"><defs><style type="text/css"></style></defs><path d="M505.92 653.66c-13.68 0-26 4.1-35.57 13.67Q456 680.67 456 702.18A47.47 47.47 0 0 0 470.35 737c9.58 9.57 21.86 14.35 35.57 14.35a51.35 51.35 0 0 0 35.57-13.67c9.58-9.56 15.06-21.18 15.06-35.53s-4.79-26-14.37-34.85c-9.58-9.57-21.89-13.68-36.26-13.68z m12.31-399.75c-50.62 0-90.3 14.35-119 43.73-20.15 20.1-33.23 45.23-39.23 75.62-4.31 21.73 12.58 41.92 34.73 41.92h0.73a35.49 35.49 0 0 0 34.86-29.6q4.23-24.29 16.11-40.1c13.68-19.85 36.26-29.38 67-29.38 24.63 0 44.47 6.83 58.15 20.5 13 13.67 19.87 32.12 19.87 56 0 17.76-6.83 34.16-19.15 49.88l-11.63 13c-42.41 37.59-68.41 65.59-77.3 84.73a110.68 110.68 0 0 0-11.25 33.92c0 0.21-0.06 0.42-0.1 0.64-3.4 22.1 13.94 42 36.3 42h0.1a36.85 36.85 0 0 0 36.32-31.41c0.07-0.43 0.14-0.81 0.21-1.15a86.24 86.24 0 0 1 8.88-24.21c6.17-12.29 15.73-24.59 28.74-35.53q48.23-42 57.46-53.3c17.1-21.83 26-49.89 26-83.38 0-41-13.69-73.8-41-97.72-27.4-24.54-63-36.19-106.75-36.19z m-7.52 702.49c-245.58 0-444.65-198.87-444.65-444.18S265.13 68.05 510.71 68.05s444.65 198.86 444.65 444.17S756.29 956.4 510.71 956.4z m0 0" p-id="5931" fill="#707070"></path></svg>