<?xml version="1.0" encoding="utf-8"?>
<svg version="1.1" xmlns:xlink="http://www.w3.org/1999/xlink" width="300px" height="170px" xmlns="http://www.w3.org/2000/svg">
  <g transform="matrix(1 0 0 1 -383 -87 )">
    <path d="M 383 87  L 683 87  L 683 257  L 383 257  L 383 87  " fill-rule="nonzero" fill="#cccccc" stroke="none" />
    <path d="M 395 99  L 671 99  L 671 245  L 395 245  L 395 99  " fill-rule="nonzero" fill="#ffffff" stroke="none" />
    <path d="M 551.75 138  C 544.61 138  539 132.39  539 125.25  C 539 118.11  544.61 112.5  551.75 112.5  C 558.89 112.5  564.5 118.11  564.5 125.25  C 564.5 132.39  558.89 138  551.75 138  " fill-rule="nonzero" fill="#cccccc" stroke="none" />
    <path d="M 400 241  L 400 165.65  L 466.75 131.4  L 560.2 194.42  L 613.6 151.95  L 667 194.42  L 667 241  L 400 241  " fill-rule="nonzero" fill="#169bd5" stroke="none" />
  </g>
</svg>