<?xml version="1.0" encoding="utf-8"?>
<svg version="1.1" xmlns:xlink="http://www.w3.org/1999/xlink" width="1333px" height="686px" xmlns="http://www.w3.org/2000/svg">
  <g transform="matrix(1 0 0 1 -99 -174 )">
    <path d="M 100 179  A 4 4 0 0 1 104 175 L 1427 175  A 4 4 0 0 1 1431 179 L 1431 855  A 4 4 0 0 1 1427 859 L 104 859  A 4 4 0 0 1 100 855 L 100 179  Z " fill-rule="nonzero" fill="#e0e0e0" stroke="none" />
    <path d="M 99.5 179  A 4.5 4.5 0 0 1 104 174.5 L 1427 174.5  A 4.5 4.5 0 0 1 1431.5 179 L 1431.5 855  A 4.5 4.5 0 0 1 1427 859.5 L 104 859.5  A 4.5 4.5 0 0 1 99.5 855 L 99.5 179  Z " stroke-width="1" stroke="#797979" fill="none" stroke-opacity="0.623529411764706" />
  </g>
</svg>