<?xml version="1.0" encoding="utf-8"?>
<svg version="1.1" xmlns:xlink="http://www.w3.org/1999/xlink" width="116px" height="27px" viewBox="947 181  116 27" xmlns="http://www.w3.org/2000/svg">
  <path d="M 948 184  A 2 2 0 0 1 950 182 L 1060 182  A 2 2 0 0 1 1062 184 L 1062 205  A 2 2 0 0 1 1060 207 L 950 207  A 2 2 0 0 1 948 205 L 948 184  Z " fill-rule="nonzero" fill="#ffffff" stroke="none" />
  <path d="M 947.5 184  A 2.5 2.5 0 0 1 950 181.5 L 1060 181.5  A 2.5 2.5 0 0 1 1062.5 184 L 1062.5 205  A 2.5 2.5 0 0 1 1060 207.5 L 950 207.5  A 2.5 2.5 0 0 1 947.5 205 L 947.5 184  Z " stroke-width="1" stroke="#d7d7d7" fill="none" stroke-opacity="0.533333333333333" />
</svg>