<?xml version="1.0" encoding="utf-8"?>
<svg version="1.1" xmlns:xlink="http://www.w3.org/1999/xlink" width="13px" height="13px" xmlns="http://www.w3.org/2000/svg">
  <g transform="matrix(1 0 0 1 -1122 -188 )">
    <path d="M 12.7080078125 7.66373697916667  C 12.7616102430556 7.71733940972222  12.7884114583333 7.78081597222222  12.7884114583333 7.85416666666667  C 12.7884114583333 7.88237847222222  12.7855902777778 7.90212673611111  12.7799479166667 7.91341145833333  C 12.4188368055556 9.42556423611111  11.6627604166667 10.6513671875  10.51171875 11.5908203125  C 9.36067708333333 12.5302734375  8.01215277777778 13  6.46614583333333 13  C 5.64236111111111 13  4.84537760416667 12.8448350694444  4.0751953125 12.5345052083333  C 3.30501302083333 12.2241753472222  2.61805555555556 11.78125  2.01432291666667 11.2057291666667  L 0.922526041666667 12.2975260416667  C 0.815321180555556 12.4047309027778  0.688368055555556 12.4583333333333  0.541666666666667 12.4583333333333  C 0.394965277777778 12.4583333333333  0.268012152777778 12.4047309027778  0.160807291666667 12.2975260416667  C 0.0536024305555556 12.1903211805556  0 12.0633680555556  0 11.9166666666667  L 0 8.125  C 0 7.97829861111111  0.0536024305555556 7.85134548611111  0.160807291666667 7.744140625  C 0.268012152777778 7.63693576388889  0.394965277777778 7.58333333333333  0.541666666666667 7.58333333333333  L 4.33333333333333 7.58333333333333  C 4.48003472222222 7.58333333333333  4.60698784722222 7.63693576388889  4.71419270833333 7.744140625  C 4.82139756944444 7.85134548611111  4.875 7.97829861111111  4.875 8.125  C 4.875 8.27170138888889  4.82139756944444 8.39865451388889  4.71419270833333 8.505859375  L 3.5546875 9.66536458333333  C 3.95529513888889 10.0377604166667  4.40950520833333 10.3255208333333  4.91731770833333 10.5286458333333  C 5.42513020833333 10.7317708333333  5.95269097222222 10.8333333333333  6.5 10.8333333333333  C 7.25607638888889 10.8333333333333  7.96137152777778 10.6499565972222  8.61588541666667 10.283203125  C 9.27039930555556 9.91644965277778  9.79513888888889 9.41145833333333  10.1901041666667 8.76822916666667  C 10.2521701388889 8.67230902777778  10.4016927083333 8.34223090277778  10.638671875 7.77799479166667  C 10.6838107638889 7.64822048611111  10.7684461805556 7.58333333333333  10.892578125 7.58333333333333  L 12.517578125 7.58333333333333  C 12.5909288194444 7.58333333333333  12.6544053819444 7.61013454861111  12.7080078125 7.66373697916667  Z M 12.8391927083333 0.702473958333334  C 12.9463975694444 0.809678819444444  13 0.936631944444444  13 1.08333333333333  L 13 4.875  C 13 5.02170138888889  12.9463975694444 5.14865451388889  12.8391927083333 5.255859375  C 12.7319878472222 5.36306423611111  12.6050347222222 5.41666666666667  12.4583333333333 5.41666666666667  L 8.66666666666667 5.41666666666667  C 8.51996527777778 5.41666666666667  8.39301215277778 5.36306423611111  8.28580729166667 5.255859375  C 8.17860243055556 5.14865451388889  8.125 5.02170138888889  8.125 4.875  C 8.125 4.72829861111111  8.17860243055556 4.60134548611111  8.28580729166667 4.494140625  L 9.45377604166667 3.326171875  C 8.61870659722222 2.55316840277778  7.63411458333333 2.16666666666667  6.5 2.16666666666667  C 5.74392361111111 2.16666666666667  5.03862847222222 2.35004340277778  4.38411458333333 2.716796875  C 3.72960069444445 3.08355034722222  3.20486111111111 3.58854166666667  2.80989583333333 4.23177083333333  C 2.74782986111111 4.32769097222222  2.59830729166667 4.65776909722222  2.361328125 5.22200520833333  C 2.31618923611111 5.35177951388889  2.23155381944444 5.41666666666667  2.107421875 5.41666666666667  L 0.423177083333333 5.41666666666667  C 0.349826388888889 5.41666666666667  0.286349826388889 5.38986545138889  0.232747395833333 5.33626302083333  C 0.179144965277778 5.28266059027778  0.15234375 5.21918402777778  0.15234375 5.14583333333333  L 0.15234375 5.08658854166667  C 0.519097222222222 3.57443576388889  1.28081597222222 2.3486328125  2.4375 1.4091796875  C 3.59418402777778 0.4697265625  4.94835069444444 0  6.5 0  C 7.32378472222222 0  8.125 0.156575520833334  8.90364583333333 0.4697265625  C 9.68229166666667 0.782877604166666  10.3734809027778 1.22439236111111  10.9772135416667 1.79427083333333  L 12.0774739583333 0.702473958333334  C 12.1846788194444 0.595269097222221  12.3116319444444 0.541666666666666  12.4583333333333 0.541666666666666  C 12.6050347222222 0.541666666666666  12.7319878472222 0.595269097222221  12.8391927083333 0.702473958333334  Z " fill-rule="nonzero" fill="#f65f0d" stroke="none" transform="matrix(1 0 0 1 1122 188 )" />
  </g>
</svg>