<?xml version="1.0" encoding="utf-8"?>
<svg version="1.1" xmlns:xlink="http://www.w3.org/1999/xlink" width="13px" height="13px" xmlns="http://www.w3.org/2000/svg">
  <g transform="matrix(1 0 0 1 -1084 -188 )">
    <path d="M 12.0774739583333 4.71419270833333  L 10.8587239583333 3.49544270833333  L 7.85416666666667 6.5  L 10.8587239583333 9.50455729166667  L 12.0774739583333 8.28580729166667  C 12.2411024305556 8.11089409722222  12.4385850694444 8.07139756944444  12.669921875 8.16731770833333  C 12.8899739583333 8.26323784722222  13 8.4296875  13 8.66666666666667  L 13 12.4583333333333  C 13 12.6050347222222  12.9463975694444 12.7319878472222  12.8391927083333 12.8391927083333  C 12.7319878472222 12.9463975694444  12.6050347222222 13  12.4583333333333 13  L 8.66666666666667 13  C 8.4296875 13  8.26323784722222 12.8871527777778  8.16731770833333 12.6614583333333  C 8.07139756944444 12.44140625  8.11089409722222 12.2467447916667  8.28580729166667 12.0774739583333  L 9.50455729166667 10.8587239583333  L 6.5 7.85416666666667  L 3.49544270833333 10.8587239583333  L 4.71419270833333 12.0774739583333  C 4.88910590277778 12.2467447916667  4.92860243055556 12.44140625  4.83268229166667 12.6614583333333  C 4.73676215277778 12.8871527777778  4.5703125 13  4.33333333333333 13  L 0.541666666666667 13  C 0.394965277777778 13  0.268012152777778 12.9463975694444  0.160807291666667 12.8391927083333  C 0.0536024305555556 12.7319878472222  0 12.6050347222222  0 12.4583333333333  L 0 8.66666666666667  C 0 8.4296875  0.112847222222222 8.26323784722222  0.338541666666667 8.16731770833333  C 0.55859375 8.07139756944444  0.753255208333333 8.11089409722222  0.922526041666667 8.28580729166667  L 2.14127604166667 9.50455729166667  L 5.14583333333333 6.5  L 2.14127604166667 3.49544270833333  L 0.922526041666667 4.71419270833333  C 0.815321180555556 4.82139756944444  0.688368055555556 4.875  0.541666666666667 4.875  C 0.473958333333333 4.875  0.40625 4.86089409722222  0.338541666666667 4.83268229166667  C 0.112847222222222 4.73676215277778  0 4.5703125  0 4.33333333333333  L 0 0.541666666666666  C 0 0.394965277777776  0.0536024305555556 0.268012152777776  0.160807291666667 0.160807291666666  C 0.268012152777778 0.0536024305555549  0.394965277777778 0  0.541666666666667 0  L 4.33333333333333 0  C 4.5703125 0  4.73676215277778 0.112847222222221  4.83268229166667 0.338541666666666  C 4.92860243055556 0.55859375  4.88910590277778 0.753255208333334  4.71419270833333 0.922526041666666  L 3.49544270833333 2.14127604166667  L 6.5 5.14583333333333  L 9.50455729166667 2.14127604166667  L 8.28580729166667 0.922526041666666  C 8.11089409722222 0.753255208333334  8.07139756944444 0.55859375  8.16731770833333 0.338541666666666  C 8.26323784722222 0.112847222222221  8.4296875 0  8.66666666666667 0  L 12.4583333333333 0  C 12.6050347222222 0  12.7319878472222 0.0536024305555549  12.8391927083333 0.160807291666666  C 12.9463975694444 0.268012152777776  13 0.394965277777776  13 0.541666666666666  L 13 4.33333333333333  C 13 4.5703125  12.8899739583333 4.73676215277778  12.669921875 4.83268229166667  C 12.5965711805556 4.86089409722222  12.5260416666667 4.875  12.4583333333333 4.875  C 12.3116319444444 4.875  12.1846788194444 4.82139756944444  12.0774739583333 4.71419270833333  Z " fill-rule="nonzero" fill="#00ccd9" stroke="none" transform="matrix(1 0 0 1 1084 188 )" />
  </g>
</svg>