<?xml version="1.0" encoding="utf-8"?>
<svg version="1.1" xmlns:xlink="http://www.w3.org/1999/xlink" width="135px" height="26px" viewBox="805 181  135 26" xmlns="http://www.w3.org/2000/svg">
  <path d="M 806 184  A 2 2 0 0 1 808 182 L 937 182  A 2 2 0 0 1 939 184 L 939 204  A 2 2 0 0 1 937 206 L 808 206  A 2 2 0 0 1 806 204 L 806 184  Z " fill-rule="nonzero" fill="#f0f0f0" stroke="none" />
  <path d="M 805.5 184  A 2.5 2.5 0 0 1 808 181.5 L 937 181.5  A 2.5 2.5 0 0 1 939.5 184 L 939.5 204  A 2.5 2.5 0 0 1 937 206.5 L 808 206.5  A 2.5 2.5 0 0 1 805.5 204 L 805.5 184  Z " stroke-width="1" stroke="#d7d7d7" fill="none" stroke-opacity="0.533333333333333" />
</svg>