<?xml version="1.0" encoding="utf-8"?>
<svg version="1.1" xmlns:xlink="http://www.w3.org/1999/xlink" width="80px" height="80px" xmlns="http://www.w3.org/2000/svg">
  <g transform="matrix(1 0 0 1 -794 -360 )">
    <path d="M 834 364  C 854.16 364  870 379.84  870 400  C 870 420.16  854.16 436  834 436  C 813.84 436  798 420.16  798 400  C 798 379.84  813.84 364  834 364  Z " fill-rule="nonzero" fill="#ffffff" stroke="none" />
    <path d="M 834 362.5  C 855 362.5  871.5 379  871.5 400  C 871.5 421  855 437.5  834 437.5  C 813 437.5  796.5 421  796.5 400  C 796.5 379  813 362.5  834 362.5  Z " stroke-width="5" stroke="#18c27b" fill="none" />
  </g>
</svg>