<?xml version="1.0" encoding="utf-8"?>
<svg version="1.1" xmlns:xlink="http://www.w3.org/1999/xlink" width="17px" height="13px" xmlns="http://www.w3.org/2000/svg">
  <g transform="matrix(1 0 0 1 -1107 -326 )">
    <path d="M 7.92825112107623 9.75  L 8.46188340807175 9.75  L 9.56726457399103 8.67897727272727  L 8.11883408071749 7.27556818181818  L 7.01345291479821 8.34659090909091  L 7.01345291479821 8.86363636363637  L 7.92825112107623 8.86363636363637  L 7.92825112107623 9.75  Z M 12.6451793721973 3.40696022727273  C 12.7531763826607 3.30232007575757  12.7563527653214 3.20075757575757  12.6547085201794 3.10227272727273  C 12.5530642750374 3.00378787878788  12.4482436472347 3.00686553030303  12.3402466367713 3.11150568181818  L 9.00504484304933 6.34303977272727  C 8.89704783258595 6.44767992424242  8.89387144992526 6.54924242424242  8.99551569506726 6.64772727272727  C 9.09715994020927 6.74621212121212  9.20198056801196 6.74313446969697  9.30997757847534 6.63849431818182  L 12.6451793721973 3.40696022727273  Z M 13.2264573991031 8.31889204545455  C 13.3535127055306 8.36813446969697  13.4170403587444 8.45738636363637  13.4170403587444 8.58664772727273  L 13.4170403587444 10.3409090909091  C 13.4170403587444 11.0733901515152  13.1486360239163 11.6996922348485  12.6118273542601 12.2198153409091  C 12.0750186846039 12.7399384469697  11.428624813154 13  10.6726457399103 13  L 2.74439461883408 13  C 1.98841554559043 13  1.34202167414051 12.7399384469697  0.805213004484305 12.2198153409091  C 0.268404334828102 11.6996922348485  0 11.0733901515152  0 10.3409090909091  L 0 2.65909090909091  C 0 1.92660984848485  0.268404334828102 1.30030776515151  0.805213004484305 0.78018465909091  C 1.34202167414051 0.260061553030302  1.98841554559043 0  2.74439461883408 0  L 10.6726457399103 0  C 11.072869955157 0  11.4445067264574 0.0769412878787872  11.7875560538117 0.230823863636363  C 11.8828475336323 0.273910984848484  11.9400224215247 0.344696969696969  11.9590807174888 0.443181818181818  C 11.9781390134529 0.547821969696969  11.9495515695067 0.637073863636363  11.8733183856502 0.7109375  L 11.4063901345291 1.16335227272727  C 11.3174514200299 1.24952651515151  11.2158071748879 1.27414772727273  11.1014573991031 1.23721590909091  C 10.9553437967115 1.20028409090909  10.8124065769806 1.18181818181818  10.6726457399103 1.18181818181818  L 2.74439461883408 1.18181818181818  C 2.32511210762332 1.18181818181818  1.96618086696562 1.3264678030303  1.66760089686099 1.61576704545455  C 1.36902092675635 1.90506628787879  1.21973094170404 2.25284090909091  1.21973094170404 2.65909090909091  L 1.21973094170404 10.3409090909091  C 1.21973094170404 10.7471590909091  1.36902092675635 11.0949337121212  1.66760089686099 11.3842329545455  C 1.96618086696562 11.6735321969697  2.32511210762332 11.8181818181818  2.74439461883408 11.8181818181818  L 10.6726457399103 11.8181818181818  C 11.0919282511211 11.8181818181818  11.4508594917788 11.6735321969697  11.7494394618834 11.3842329545455  C 12.048019431988 11.0949337121212  12.1973094170404 10.7471590909091  12.1973094170404 10.3409090909091  L 12.1973094170404 9.17755681818182  C 12.1973094170404 9.09753787878788  12.2258968609865 9.02982954545455  12.2830717488789 8.97443181818182  L 12.8929372197309 8.38352272727273  C 12.9882286995516 8.29119318181818  13.0994020926756 8.26964962121212  13.2264573991031 8.31889204545455  Z M 6.09865470852018 7.97727272727273  L 12.5022421524664 1.77272727272727  L 15.2466367713004 4.43181818181818  L 8.84304932735426 10.6363636363636  L 6.09865470852018 10.6363636363636  L 6.09865470852018 7.97727272727273  Z M 17 2.36363636363636  C 17 2.60984848484848  16.9110612855007 2.81912878787879  16.7331838565022 2.99147727272727  L 15.8565022421525 3.84090909090909  L 13.1121076233184 1.18181818181818  L 13.9887892376682 0.332386363636363  C 14.1666666666667 0.160037878787878  14.3826606875934 0.073863636363637  14.6367713004484 0.073863636363637  C 14.8908819133034 0.073863636363637  15.1068759342302 0.160037878787878  15.2847533632287 0.332386363636363  L 16.7331838565022 1.73579545454545  C 16.9110612855007 1.90814393939394  17 2.11742424242424  17 2.36363636363636  Z " fill-rule="nonzero" fill="#000000" stroke="none" transform="matrix(1 0 0 1 1107 326 )" />
  </g>
</svg>