<?xml version="1.0" encoding="utf-8"?>
<svg version="1.1" xmlns:xlink="http://www.w3.org/1999/xlink" width="80px" height="80px" xmlns="http://www.w3.org/2000/svg">
  <g transform="matrix(1 0 0 1 -18 -206 )">
    <path d="M 58 210  C 78.16 210  94 225.84  94 246  C 94 266.16  78.16 282  58 282  C 37.84 282  22 266.16  22 246  C 22 225.84  37.84 210  58 210  Z " fill-rule="nonzero" fill="#ffffff" stroke="none" />
    <path d="M 58 208.5  C 79 208.5  95.5 225  95.5 246  C 95.5 267  79 283.5  58 283.5  C 37 283.5  20.5 267  20.5 246  C 20.5 225  37 208.5  58 208.5  Z " stroke-width="5" stroke="#d9001b" fill="none" />
  </g>
</svg>