<?xml version="1.0" encoding="utf-8"?>
<svg version="1.1" xmlns:xlink="http://www.w3.org/1999/xlink" width="320px" height="30px" xmlns="http://www.w3.org/2000/svg">
  <g transform="matrix(1 0 0 1 -335 -252 )">
    <path d="M 336 257  A 4 4 0 0 1 340 253 L 650 253  A 4 4 0 0 1 654 257 L 654 277  A 4 4 0 0 1 650 281 L 340 281  A 4 4 0 0 1 336 277 L 336 257  Z " fill-rule="nonzero" fill="#ffffff" stroke="none" />
    <path d="M 335.5 257  A 4.5 4.5 0 0 1 340 252.5 L 650 252.5  A 4.5 4.5 0 0 1 654.5 257 L 654.5 277  A 4.5 4.5 0 0 1 650 281.5 L 340 281.5  A 4.5 4.5 0 0 1 335.5 277 L 335.5 257  Z " stroke-width="1" stroke="#999999" fill="none" stroke-opacity="0.717647058823529" />
  </g>
</svg>