<?xml version="1.0" standalone="no"?><!DOCTYPE svg PUBLIC "-//W3C//DTD SVG 1.1//EN" "http://www.w3.org/Graphics/SVG/1.1/DTD/svg11.dtd"><svg t="1602765573432" class="icon" viewBox="0 0 1024 1024" version="1.1" xmlns="http://www.w3.org/2000/svg" p-id="7248" xmlns:xlink="http://www.w3.org/1999/xlink" width="32" height="32"><defs><style type="text/css"></style></defs><path d="M311.833357 676.885628A359.896003 359.896003 0 0 1 123.26879 364.660111C123.26879 163.303032 297.305769 0 512.043522 0s388.657099 163.1854 388.657099 364.454255a359.984228 359.984228 0 0 1-188.564567 312.343148 182.859401 182.859401 0 0 1-43.20046 86.753817H355.033817a184.035724 184.035724 0 0 1-43.20046-86.665592z m477.910603-277.700438a277.759254 277.759254 0 0 0-277.700438-277.582806c-24.585149 0-37.024765 11.763229-37.024765 34.613302 0 5.705166 12.469023 17.262539 37.024765 17.26254a224.207152 224.207152 0 0 1 222.148587 225.706964c0 5.705166 12.469023 17.380171 36.907132 17.380171a27.349508 27.349508 0 0 0 18.644719-17.380171zM345.417377 850.246221a35.789625 35.789625 0 0 1 36.907132-34.525078h259.290984a34.701527 34.701527 0 1 1 0 69.256013H382.412734a35.907258 35.907258 0 0 1-37.024765-34.730935zM661.436535 937.205894a171.772557 171.772557 0 0 1-298.491946 0z" fill="#FF6057" p-id="7249"></path></svg>