<?xml version="1.0" encoding="utf-8"?>
<svg version="1.1" xmlns:xlink="http://www.w3.org/1999/xlink" width="17px" height="17px" xmlns="http://www.w3.org/2000/svg">
  <g transform="matrix(1 0 0 1 -1320 -345 )">
    <path d="M 9.81705729166667 14.0670572916667  C 9.88346354166667 14.0006510416667  9.91666666666667 13.9157986111111  9.91666666666667 13.8125  L 9.91666666666667 11.6875  C 9.91666666666667 11.5842013888889  9.88346354166667 11.4993489583333  9.81705729166667 11.4329427083333  C 9.75065104166667 11.3665364583333  9.66579861111111 11.3333333333333  9.5625 11.3333333333333  L 7.4375 11.3333333333333  C 7.33420138888889 11.3333333333333  7.24934895833333 11.3665364583333  7.18294270833333 11.4329427083333  C 7.11653645833333 11.4993489583333  7.08333333333333 11.5842013888889  7.08333333333333 11.6875  L 7.08333333333333 13.8125  C 7.08333333333333 13.9157986111111  7.11653645833333 14.0006510416667  7.18294270833333 14.0670572916667  C 7.24934895833333 14.1334635416667  7.33420138888889 14.1666666666667  7.4375 14.1666666666667  L 9.5625 14.1666666666667  C 9.66579861111111 14.1666666666667  9.75065104166667 14.1334635416667  9.81705729166667 14.0670572916667  Z M 12.6116536458333 7.271484375  C 12.7038845486111 6.99848090277778  12.75 6.69965277777778  12.75 6.375  C 12.75 5.72569444444444  12.5452473958333 5.12434895833333  12.1357421875 4.57096354166667  C 11.7262369791667 4.017578125  11.2152777777778 3.58962673611111  10.6028645833333 3.287109375  C 9.99045138888889 2.98459201388889  9.36328125 2.83333333333333  8.72135416666667 2.83333333333333  C 6.92838541666667 2.83333333333333  5.55967881944444 3.619140625  4.615234375 5.19075520833333  C 4.50455729166667 5.36783854166667  4.53407118055556 5.52278645833333  4.70377604166667 5.65559895833333  L 6.16471354166667 6.76236979166667  C 6.21636284722222 6.806640625  6.28645833333333 6.82877604166667  6.375 6.82877604166667  C 6.49305555555556 6.82877604166667  6.58528645833333 6.78450520833333  6.65169270833333 6.69596354166667  C 7.04275173611111 6.19422743055556  7.36002604166667 5.85481770833333  7.603515625 5.677734375  C 7.85438368055556 5.50065104166667  8.17165798611111 5.412109375  8.55533854166667 5.412109375  C 8.90950520833333 5.412109375  9.22493489583333 5.50802951388889  9.50162760416667 5.69986979166667  C 9.7783203125 5.89171006944444  9.91666666666667 6.109375  9.91666666666667 6.35286458333333  C 9.91666666666667 6.63324652777778  9.84288194444444 6.85828993055556  9.6953125 7.02799479166667  C 9.54774305555556 7.19769965277778  9.296875 7.36371527777778  8.94270833333333 7.52604166666667  C 8.47786458333333 7.73263888888889  8.0517578125 8.0517578125  7.66438802083333 8.4833984375  C 7.27701822916667 8.9150390625  7.08333333333333 9.37803819444444  7.08333333333333 9.87239583333333  L 7.08333333333333 10.2708333333333  C 7.08333333333333 10.3741319444444  7.11653645833333 10.458984375  7.18294270833333 10.525390625  C 7.24934895833333 10.591796875  7.33420138888889 10.625  7.4375 10.625  L 9.5625 10.625  C 9.66579861111111 10.625  9.75065104166667 10.591796875  9.81705729166667 10.525390625  C 9.88346354166667 10.458984375  9.91666666666667 10.3741319444444  9.91666666666667 10.2708333333333  C 9.91666666666667 10.1306423611111  9.99598524305556 9.94802517361111  10.1546223958333 9.72298177083333  C 10.3132595486111 9.49793836805556  10.5143229166667 9.31532118055556  10.7578125 9.17513020833333  C 10.9939236111111 9.04231770833333  11.1746961805556 8.93717447916667  11.3001302083333 8.85970052083333  C 11.4255642361111 8.7822265625  11.5952690972222 8.65310329861111  11.8092447916667 8.47233072916667  C 12.0232204861111 8.29155815972222  12.1873914930556 8.11447482638889  12.3017578125 7.94108072916667  C 12.4161241319444 7.76768663194444  12.5194227430556 7.54448784722222  12.6116536458333 7.271484375  Z M 15.8600260416667 4.2333984375  C 16.6200086805556 5.53569878472222  17 6.95789930555555  17 8.5  C 17 10.0421006944444  16.6200086805556 11.4643012152778  15.8600260416667 12.7666015625  C 15.1000434027778 14.0689019097222  14.0689019097222 15.1000434027778  12.7666015625 15.8600260416667  C 11.4643012152778 16.6200086805556  10.0421006944444 17  8.5 17  C 6.95789930555556 17  5.53569878472222 16.6200086805556  4.2333984375 15.8600260416667  C 2.93109809027778 15.1000434027778  1.89995659722222 14.0689019097222  1.13997395833333 12.7666015625  C 0.379991319444444 11.4643012152778  0 10.0421006944444  0 8.5  C 0 6.95789930555555  0.379991319444444 5.53569878472222  1.13997395833333 4.2333984375  C 1.89995659722222 2.93109809027778  2.93109809027778 1.89995659722222  4.2333984375 1.13997395833333  C 5.53569878472222 0.379991319444443  6.95789930555556 0  8.5 0  C 10.0421006944444 0  11.4643012152778 0.379991319444443  12.7666015625 1.13997395833333  C 14.0689019097222 1.89995659722222  15.1000434027778 2.93109809027778  15.8600260416667 4.2333984375  Z " fill-rule="nonzero" fill="#333333" stroke="none" transform="matrix(1 0 0 1 1320 345 )" />
  </g>
</svg>