<?xml version="1.0" encoding="utf-8"?>
<svg version="1.1" xmlns:xlink="http://www.w3.org/1999/xlink" width="13px" height="10px" xmlns="http://www.w3.org/2000/svg">
  <g transform="matrix(1 0 0 1 -1864 -624 )">
    <path d="M 5.00871428571418 8.85392857142858  C 4.89357142857148 8.96907142857145  4.74221428571423 9.02664285714286  4.5908571428572 9.02664285714286  C 4.43949999999995 9.02664285714286  4.28814285714293 8.96907142857145  4.173 8.85300000000001  L 0.173642857142795 4.85457142857143  C -0.0575714285714639 4.62335714285717  -0.0575714285714639 4.25007142857146  0.173642857142795 4.01885714285714  C 0.403928571428651 3.78857142857146  0.778142857142939 3.78857142857146  1.00842857142857 4.01885714285714  L 4.5908571428572 7.60035714285715  L 11.9915714285714 0.200571428571436  C 12.2218571428571 -0.0306428571428796  12.5960714285713 -0.0306428571428796  12.8263571428572 0.200571428571436  C 13.0575714285715 0.431785714285695  13.0575714285715 0.805071428571409  12.8263571428572 1.03628571428573  L 5.00871428571418 8.85392857142858  Z " fill-rule="nonzero" fill="#ffffff" stroke="none" transform="matrix(1 0 0 1 1864 624 )" />
  </g>
</svg>