<?xml version="1.0" encoding="utf-8"?>
<svg version="1.1" xmlns:xlink="http://www.w3.org/1999/xlink" width="11px" height="7px" xmlns="http://www.w3.org/2000/svg">
  <g transform="matrix(1 0 0 1 -221 -314 )">
    <path d="M 10.8897795591182 0.721649484536087  C 10.9632598530394 0.801832760595644  11 0.894043528064145  11 0.998281786941575  C 11 1.10252004581902  10.9632598530394 1.19473081328751  10.8897795591182 1.27491408934708  L 9.08874184020019 3.24024515844445  L 5.75350701402807 6.87972508591065  C 5.68002672010688 6.95990836197022  5.59552438209754 7  5.5 7  C 5.40447561790248 7  5.31997327989312 6.95990836197022  5.24649298597193 6.87972508591065  L 0.110220440881768 1.27491408934708  C 0.0367401469605813 1.19473081328751  0 1.10252004581902  0 0.998281786941575  C 0 0.894043528064145  0.0367401469605813 0.801832760595644  0.110220440881768 0.721649484536087  L 0.661322645290583 0.12027491408935  C 0.734802939211746 0.0400916380297787  0.819305277221109 0  0.914829659318649 0  C 1.01035404141617 0  1.09485637942553 0.0400916380297787  1.16833667334669 0.12027491408935  L 5.5 4.84707903780068  L 6.32243550626415 3.94961973652588  L 9.83166332665331 0.12027491408935  C 9.90514362057447 0.0400916380297787  9.98964595858383 0  10.0851703406813 0  C 10.1806947227789 0  10.2651970607883 0.0400916380297787  10.3386773547094 0.12027491408935  L 10.8897795591182 0.721649484536087  Z " fill-rule="nonzero" fill="#d7d7d7" stroke="none" transform="matrix(1 0 0 1 221 314 )" />
  </g>
</svg>