<?xml version="1.0" encoding="utf-8"?>
<svg version="1.1" xmlns:xlink="http://www.w3.org/1999/xlink" width="232px" height="30px" xmlns="http://www.w3.org/2000/svg">
  <g transform="matrix(1 0 0 1 -88 -15 )">
    <path d="M 89 18  A 2 2 0 0 1 91 16 L 317 16  A 2 2 0 0 1 319 18 L 319 42  A 2 2 0 0 1 317 44 L 91 44  A 2 2 0 0 1 89 42 L 89 18  Z " fill-rule="nonzero" fill="#ffffff" stroke="none" />
    <path d="M 88.5 18  A 2.5 2.5 0 0 1 91 15.5 L 317 15.5  A 2.5 2.5 0 0 1 319.5 18 L 319.5 42  A 2.5 2.5 0 0 1 317 44.5 L 91 44.5  A 2.5 2.5 0 0 1 88.5 42 L 88.5 18  Z " stroke-width="1" stroke="#797979" fill="none" stroke-opacity="0.827450980392157" />
  </g>
</svg>