<?xml version="1.0" encoding="utf-8"?>
<svg version="1.1" xmlns:xlink="http://www.w3.org/1999/xlink" width="698px" height="175px" xmlns="http://www.w3.org/2000/svg">
  <g transform="matrix(1 0 0 1 -15 -65 )">
    <path d="M 16 70  A 4 4 0 0 1 20 66 L 708 66  A 4 4 0 0 1 712 70 L 712 235  A 4 4 0 0 1 708 239 L 20 239  A 4 4 0 0 1 16 235 L 16 70  Z " fill-rule="nonzero" fill="#ffffff" stroke="none" />
    <path d="M 15.5 70  A 4.5 4.5 0 0 1 20 65.5 L 708 65.5  A 4.5 4.5 0 0 1 712.5 70 L 712.5 235  A 4.5 4.5 0 0 1 708 239.5 L 20 239.5  A 4.5 4.5 0 0 1 15.5 235 L 15.5 70  Z " stroke-width="1" stroke="#d7d7d7" fill="none" stroke-opacity="0.996078431372549" />
  </g>
</svg>