<?xml version="1.0" encoding="utf-8"?>
<svg version="1.1" xmlns:xlink="http://www.w3.org/1999/xlink" width="12px" height="12px" viewBox="350 499  12 12" xmlns="http://www.w3.org/2000/svg">
  <path d="M 350.5 501  A 1.5 1.5 0 0 1 352 499.5 L 360 499.5  A 1.5 1.5 0 0 1 361.5 501 L 361.5 509  A 1.5 1.5 0 0 1 360 510.5 L 352 510.5  A 1.5 1.5 0 0 1 350.5 509 L 350.5 501  Z " fill-rule="nonzero" fill="#ffffff" stroke="none" />
  <path d="M 350.5 501  A 1.5 1.5 0 0 1 352 499.5 L 360 499.5  A 1.5 1.5 0 0 1 361.5 501 L 361.5 509  A 1.5 1.5 0 0 1 360 510.5 L 352 510.5  A 1.5 1.5 0 0 1 350.5 509 L 350.5 501  Z " stroke-width="1" stroke="#797979" fill="none" />
</svg>