<?xml version="1.0" encoding="utf-8"?>
<svg version="1.1" xmlns:xlink="http://www.w3.org/1999/xlink" width="12px" height="12px" viewBox="350 430  12 12" xmlns="http://www.w3.org/2000/svg">
  <path d="M 350.5 432  A 1.5 1.5 0 0 1 352 430.5 L 360 430.5  A 1.5 1.5 0 0 1 361.5 432 L 361.5 440  A 1.5 1.5 0 0 1 360 441.5 L 352 441.5  A 1.5 1.5 0 0 1 350.5 440 L 350.5 432  Z " fill-rule="nonzero" fill="#f0f0f0" stroke="none" />
  <path d="M 350.5 432  A 1.5 1.5 0 0 1 352 430.5 L 360 430.5  A 1.5 1.5 0 0 1 361.5 432 L 361.5 440  A 1.5 1.5 0 0 1 360 441.5 L 352 441.5  A 1.5 1.5 0 0 1 350.5 440 L 350.5 432  Z " stroke-width="1" stroke="#797979" fill="none" />
</svg>