<?xml version="1.0" encoding="utf-8"?>
<svg version="1.1" xmlns:xlink="http://www.w3.org/1999/xlink" width="12px" height="12px" viewBox="350 567  12 12" xmlns="http://www.w3.org/2000/svg">
  <path d="M 350.5 569  A 1.5 1.5 0 0 1 352 567.5 L 360 567.5  A 1.5 1.5 0 0 1 361.5 569 L 361.5 577  A 1.5 1.5 0 0 1 360 578.5 L 352 578.5  A 1.5 1.5 0 0 1 350.5 577 L 350.5 569  Z " fill-rule="nonzero" fill="#ffffff" stroke="none" />
  <path d="M 350.5 569  A 1.5 1.5 0 0 1 352 567.5 L 360 567.5  A 1.5 1.5 0 0 1 361.5 569 L 361.5 577  A 1.5 1.5 0 0 1 360 578.5 L 352 578.5  A 1.5 1.5 0 0 1 350.5 577 L 350.5 569  Z " stroke-width="1" stroke="#797979" fill="none" />
  <path d="M 352.571428571429 573  L 355.142857142857 575.571428571429  L 359.428571428571 569.571428571429  " stroke-width="2.57142857142857" stroke="#797979" fill="none" />
</svg>