<?xml version="1.0" encoding="utf-8"?>
<svg version="1.1" xmlns:xlink="http://www.w3.org/1999/xlink" width="12px" height="12px" viewBox="350 533  12 12" xmlns="http://www.w3.org/2000/svg">
  <path d="M 350.5 535  A 1.5 1.5 0 0 1 352 533.5 L 360 533.5  A 1.5 1.5 0 0 1 361.5 535 L 361.5 543  A 1.5 1.5 0 0 1 360 544.5 L 352 544.5  A 1.5 1.5 0 0 1 350.5 543 L 350.5 535  Z " fill-rule="nonzero" fill="#ffffff" stroke="none" />
  <path d="M 350.5 535  A 1.5 1.5 0 0 1 352 533.5 L 360 533.5  A 1.5 1.5 0 0 1 361.5 535 L 361.5 543  A 1.5 1.5 0 0 1 360 544.5 L 352 544.5  A 1.5 1.5 0 0 1 350.5 543 L 350.5 535  Z " stroke-width="1" stroke="#797979" fill="none" />
  <path d="M 352.571428571429 539  L 355.142857142857 541.571428571429  L 359.428571428571 535.571428571429  " stroke-width="2.57142857142857" stroke="#797979" fill="none" />
</svg>