<?xml version="1.0" encoding="utf-8"?>
<svg version="1.1" xmlns:xlink="http://www.w3.org/1999/xlink" width="12px" height="12px" viewBox="740 427.5  12 12" xmlns="http://www.w3.org/2000/svg">
  <path d="M 746 427.5  C 749.36 427.5  752 430.14  752 433.5  C 752 436.86  749.36 439.5  746 439.5  C 742.64 439.5  740 436.86  740 433.5  C 740 430.14  742.64 427.5  746 427.5  Z " fill-rule="nonzero" fill="#ffffff" stroke="none" />
  <path d="M 746 428  C 749.08 428  751.5 430.42  751.5 433.5  C 751.5 436.58  749.08 439  746 439  C 742.92 439  740.5 436.58  740.5 433.5  C 740.5 430.42  742.92 428  746 428  Z " stroke-width="1" stroke="#797979" fill="none" />
  <path d="M 746 436.5  C 744.32 436.5  743 435.18  743 433.5  C 743 431.82  744.32 430.5  746 430.5  C 747.68 430.5  749 431.82  749 433.5  C 749 435.18  747.68 436.5  746 436.5  " fill-rule="nonzero" fill="#797979" stroke="none" />
</svg>