<?xml version="1.0" standalone="no"?><!DOCTYPE svg PUBLIC "-//W3C//DTD SVG 1.1//EN" "http://www.w3.org/Graphics/SVG/1.1/DTD/svg11.dtd"><svg t="1602764845001" class="icon" viewBox="0 0 1024 1024" version="1.1" xmlns="http://www.w3.org/2000/svg" p-id="5336" width="32" height="32" xmlns:xlink="http://www.w3.org/1999/xlink"><defs><style type="text/css"></style></defs><path d="M372.063004 0.284444a1.934222 1.934222 0 0 0-1.934222 0L0.407893 219.306667c-0.568889 0.341333-0.455111 0.568889 0.113778 0.568889h223.914667c0.682667 0 1.137778 0.455111 1.137778 1.194666v217.429334c0 0.625778 0.568889 1.194667 1.137777 1.194666h288.540445c0.682667 0 1.137778-0.568889 1.137778-1.194666V221.013333a1.137778 1.137778 0 0 1 1.137777-1.194666h224.028445c0.625778 0 0.739556-0.227556 0.113778-0.568889L372.063004 0.284444zM225.574116 512.512h211.797333v73.216H225.574116V512.512z m0 145.976889h138.638222v73.159111H225.574116v-73.159111zM42.278116 804.522667h395.093333v73.159111H42.278116v-73.159111z m0 0" p-id="5337" fill="#00ccd9"></path><path d="M1024.009671 742.798222v-73.159111h-89.884444a231.082667 231.082667 0 0 0-40.96-98.645333l63.544889-63.544889-51.598223-51.712-63.601777 63.544889a231.139556 231.139556 0 0 0-98.645334-41.073778V388.380444H669.591893v89.827556a231.708444 231.708444 0 0 0-98.645333 40.96L507.344782 455.623111l-51.712 51.655111 63.601778 63.544889a230.172444 230.172444 0 0 0-41.073778 98.645333h-89.884444v73.159112h89.884444c5.859556 36.352 20.252444 69.916444 40.96 98.645333l-63.601778 63.544889 51.712 51.655111 63.601778-63.544889a230.741333 230.741333 0 0 0 98.645334 41.073778V1024h73.216v-89.827556a230.684444 230.684444 0 0 0 98.645333-40.96l63.601778 63.544889 51.655111-51.655111-63.544889-63.544889a231.424 231.424 0 0 0 41.073778-98.645333H1024.009671v-0.113778z m-160.085333-36.579555a157.923556 157.923556 0 0 1-157.696 157.696 157.923556 157.923556 0 0 1-157.696-157.696 157.923556 157.923556 0 0 1 157.696-157.752889 157.866667 157.866667 0 0 1 157.696 157.752889z m0 0" p-id="5338" fill="#00ccd9"></path></svg>