<?xml version="1.0" encoding="utf-8"?>
<svg version="1.1" xmlns:xlink="http://www.w3.org/1999/xlink" width="12px" height="12px" viewBox="740 466.5  12 12" xmlns="http://www.w3.org/2000/svg">
  <path d="M 746 466.5  C 749.36 466.5  752 469.14  752 472.5  C 752 475.86  749.36 478.5  746 478.5  C 742.64 478.5  740 475.86  740 472.5  C 740 469.14  742.64 466.5  746 466.5  Z " fill-rule="nonzero" fill="#ffffff" stroke="none" />
  <path d="M 746 467  C 749.08 467  751.5 469.42  751.5 472.5  C 751.5 475.58  749.08 478  746 478  C 742.92 478  740.5 475.58  740.5 472.5  C 740.5 469.42  742.92 467  746 467  Z " stroke-width="1" stroke="#797979" fill="none" />
  <path d="M 746 475.5  C 744.32 475.5  743 474.18  743 472.5  C 743 470.82  744.32 469.5  746 469.5  C 747.68 469.5  749 470.82  749 472.5  C 749 474.18  747.68 475.5  746 475.5  " fill-rule="nonzero" fill="#797979" stroke="none" />
</svg>