<?xml version="1.0" encoding="utf-8"?>
<svg version="1.1" xmlns:xlink="http://www.w3.org/1999/xlink" width="91px" height="30px" viewBox="916 76  91 30" xmlns="http://www.w3.org/2000/svg">
  <path d="M 917 79  A 2 2 0 0 1 919 77 L 1004 77  A 2 2 0 0 1 1006 79 L 1006 103  A 2 2 0 0 1 1004 105 L 919 105  A 2 2 0 0 1 917 103 L 917 79  Z " fill-rule="nonzero" fill="#ffffff" stroke="none" />
  <path d="M 916.5 79  A 2.5 2.5 0 0 1 919 76.5 L 1004 76.5  A 2.5 2.5 0 0 1 1006.5 79 L 1006.5 103  A 2.5 2.5 0 0 1 1004 105.5 L 919 105.5  A 2.5 2.5 0 0 1 916.5 103 L 916.5 79  Z " stroke-width="1" stroke="#d7d7d7" fill="none" stroke-opacity="0.8" />
</svg>