<?xml version="1.0" encoding="utf-8"?>
<svg version="1.1" xmlns:xlink="http://www.w3.org/1999/xlink" width="9px" height="6px" xmlns="http://www.w3.org/2000/svg">
  <g transform="matrix(1 0 0 1 -49 -101 )">
    <path d="M 8.90981963927856 0.618556701030928  C 8.96993987975952 0.687285223367696  9 0.766323024054982  9 0.855670103092784  C 9 0.945017182130584  8.96993987975952 1.02405498281787  8.90981963927856 1.09278350515464  L 4.70741482965932 5.89690721649484  C 4.64729458917836 5.96563573883161  4.57815631262525 6  4.5 6  C 4.42184368737475 6  4.35270541082164 5.96563573883161  4.29258517034068 5.89690721649484  L 0.0901803607214429 1.09278350515464  C 0.030060120240481 1.02405498281787  0 0.945017182130584  0 0.855670103092784  C 0 0.766323024054982  0.030060120240481 0.687285223367696  0.0901803607214429 0.618556701030928  L 0.541082164328657 0.103092783505155  C 0.601202404809619 0.0343642611683841  0.670340681362726 0  0.748496993987976 0  C 0.826653306613227 0  0.895791583166333 0.0343642611683841  0.955911823647295 0.103092783505155  L 4.5 4.15463917525773  L 8.04408817635271 0.103092783505155  C 8.10420841683367 0.0343642611683841  8.17334669338677 0  8.25150300601202 0  C 8.32965931863728 0  8.39879759519038 0.0343642611683841  8.45891783567134 0.103092783505155  L 8.90981963927856 0.618556701030928  Z " fill-rule="nonzero" fill="#000000" stroke="none" transform="matrix(1 0 0 1 49 101 )" />
  </g>
</svg>