<?xml version="1.0" encoding="utf-8"?>
<svg version="1.1" xmlns:xlink="http://www.w3.org/1999/xlink" width="80px" height="30px" viewBox="590 237  80 30" xmlns="http://www.w3.org/2000/svg">
  <path d="M 591 240  A 2 2 0 0 1 593 238 L 667 238  A 2 2 0 0 1 669 240 L 669 264  A 2 2 0 0 1 667 266 L 593 266  A 2 2 0 0 1 591 264 L 591 240  Z " fill-rule="nonzero" fill="#f0f0f0" stroke="none" />
  <path d="M 590.5 240  A 2.5 2.5 0 0 1 593 237.5 L 667 237.5  A 2.5 2.5 0 0 1 669.5 240 L 669.5 264  A 2.5 2.5 0 0 1 667 266.5 L 593 266.5  A 2.5 2.5 0 0 1 590.5 264 L 590.5 240  Z " stroke-width="1" stroke="#d7d7d7" fill="none" stroke-opacity="0.968627450980392" />
</svg>