<?xml version="1.0" standalone="no"?><!DOCTYPE svg PUBLIC "-//W3C//DTD SVG 1.1//EN" "http://www.w3.org/Graphics/SVG/1.1/DTD/svg11.dtd"><svg t="1602489076040" class="icon" viewBox="0 0 1024 1024" version="1.1" xmlns="http://www.w3.org/2000/svg" p-id="1868" xmlns:xlink="http://www.w3.org/1999/xlink" width="32" height="32"><defs><style type="text/css"></style></defs><path d="M973.45536 421.15072c-18.10432 0-32.768-15.31904-32.768-34.11968 0-125.87008-47.34976-241.664-133.28384-326.00064a35.14368 35.14368 0 0 1-1.6384-48.25088 31.86688 31.86688 0 0 1 46.32576-1.6384l0.24576 0.2048c99.24608 97.40288 153.88672 230.8096 153.88672 375.68512 0 18.8416-14.66368 34.11968-32.768 34.11968z m-940.68736 0c-18.10432 0-32.768-15.31904-32.768-34.11968C0 242.15552 54.64064 108.7488 153.84576 11.34592a31.86688 31.86688 0 0 1 46.36672 1.2288 35.10272 35.10272 0 0 1-1.14688 48.20992l-0.24576 0.24576C112.88576 145.408 65.536 261.16096 65.536 387.072c0 18.8416-14.66368 34.11968-32.768 34.11968z m131.85024 385.4336h676.94592l-50.74944-55.05024a135.74144 135.74144 0 0 1-35.38944-92.5696V438.272c0-126.85312-79.95392-236.3392-194.39616-266.28096l-24.7808-6.47168V105.63584c0-19.16928-16.09728-37.35552-33.1776-37.35552-16.9984 0-33.09568 18.18624-33.09568 37.35552v59.92448l-24.7808 6.47168c-116.24448 30.39232-194.3552 137.37984-194.3552 266.24v220.7744a135.9872 135.9872 0 0 1-35.4304 92.52864l-50.7904 55.00928z m680.5504 68.28032H161.05472c-34.816 0-63.11936-30.1056-63.11936-67.09248a68.89472 68.89472 0 0 1 18.0224-46.8992l52.14208-56.60672c11.0592-12.288 17.2032-28.42624 17.2032-45.2608v-220.7744c0-79.38048 23.7568-153.27232 68.8128-213.64736a320.18432 320.18432 0 0 1 150.36416-111.24736V105.6768C404.48 48.37376 449.7408 0 503.1936 0c53.4528 0 98.63168 48.37376 98.63168 105.6768v7.70048A320.3072 320.3072 0 0 1 752.27136 225.28c44.97408 60.6208 68.73088 134.30784 68.73088 212.992v220.7744c0 16.7936 6.10304 32.9728 17.2032 45.21984l52.10112 56.60672c11.63264 12.61568 18.06336 29.45024 18.0224 46.8992-0.04096 36.98688-28.34432 67.09248-63.16032 67.09248zM501.92384 1024h16.34304c29.77792-4.62848 50.62656-26.37824 59.55584-52.71552 4.46464-9.29792 8.92928-21.7088 8.92928-35.6352h-169.69728c0 48.04608 38.66624 88.35072 84.82816 88.35072z" p-id="1869" fill="#888888"></path><path d="M350.208 673.21856c-18.10432 0-32.768-15.27808-32.768-34.16064V461.2096c0-148.60288 92.28288-205.2096 96.256-207.58528l32.48128 59.26912 0.32768-0.16384c-2.62144 1.6384-63.52896 41.08288-63.52896 148.48v177.88928c0 18.8416-14.66368 34.16064-32.768 34.16064" p-id="1870" fill="#888888"></path></svg>