<?xml version="1.0" standalone="no"?><!DOCTYPE svg PUBLIC "-//W3C//DTD SVG 1.1//EN" "http://www.w3.org/Graphics/SVG/1.1/DTD/svg11.dtd"><svg t="1602489282904" class="icon" viewBox="0 0 1024 1024" version="1.1" xmlns="http://www.w3.org/2000/svg" p-id="4177" xmlns:xlink="http://www.w3.org/1999/xlink" width="32" height="32"><defs><style type="text/css"></style></defs><path d="M853.333333 568.888889v-14.791111a356.124444 356.124444 0 0 0-247.182222-340.195556 109.226667 109.226667 0 0 0-217.6 0 355.84 355.84 0 0 0-248.32 339.342222v14.791112a109.511111 109.511111 0 0 0 54.044445 204.8 118.613333 118.613333 0 0 0 20.195555-1.991112 354.986667 354.986667 0 0 0 564.053333 0 115.2 115.2 0 0 0 19.911112 1.991112A109.511111 109.511111 0 0 0 853.333333 568.888889zM496.924444 170.666667a54.897778 54.897778 0 0 1 54.897778 54.897777v7.111112a54.328889 54.328889 0 0 1-17.92 33.848888l-6.826666 5.12h-2.275556l-6.257778 3.413334-6.542222 0.853333-5.12 1.706667a63.146667 63.146667 0 0 1-10.524444 0h-10.24l-5.404445-1.706667h-4.266667l-6.542222-3.413333h-1.991111a30.72 30.72 0 0 1-6.826667-5.12 56.888889 56.888889 0 0 1-17.92-33.848889v-5.404445-1.706666a55.182222 55.182222 0 0 1 54.044445-57.742222zM140.231111 663.04a54.897778 54.897778 0 0 1 32.426667-50.062222l5.404444-1.706667a64.284444 64.284444 0 0 1 8.533334-2.275555 43.52 43.52 0 0 1 8.533333 0 54.897778 54.897778 0 0 1 54.897778 54.897777 59.448889 59.448889 0 0 1-1.991111 14.506667 15.928889 15.928889 0 0 0 0 3.413333 66.844444 66.844444 0 0 1-6.257778 12.8 56.888889 56.888889 0 0 1-9.955556 10.524445l-4.266666 1.137778a56.888889 56.888889 0 0 1-13.368889 7.68 53.191111 53.191111 0 0 1-20.195556 3.982222 55.182222 55.182222 0 0 1-53.76-54.897778z m588.515556 85.333333a302.08 302.08 0 0 1-463.075556 0l3.128889-3.128889c3.128889-2.844444 6.257778-6.257778 9.102222-9.386666l6.257778-7.68 6.542222-10.524445c0-3.128889 3.413333-5.688889 4.835556-8.817777s3.128889-8.817778 4.551111-13.368889 1.706667-5.404444 2.275555-8.248889a102.115556 102.115556 0 0 0 2.56-23.04 109.795556 109.795556 0 0 0-109.795555-109.795556A301.511111 301.511111 0 0 1 398.222222 268.515556a106.951111 106.951111 0 0 0 14.222222 23.04l4.266667 5.12a97.848889 97.848889 0 0 0 7.68 7.68 60.017778 60.017778 0 0 0 6.542222 5.404444 100.977778 100.977778 0 0 0 8.817778 6.542222 122.595556 122.595556 0 0 0 13.368889 7.395556l6.826667 2.56a100.124444 100.124444 0 0 0 12.231111 3.697778l6.257778 1.422222a91.875556 91.875556 0 0 0 19.626666 1.991111 88.462222 88.462222 0 0 0 19.626667-1.991111l6.257778-1.422222a104.106667 104.106667 0 0 0 12.515555-3.697778l6.542222-2.56a100.693333 100.693333 0 0 0 13.368889-7.395556l9.102223-6.542222a60.017778 60.017778 0 0 0 6.542222-5.404444c2.56-2.275556 5.12-5.12 7.68-7.68l3.982222-5.12a108.373333 108.373333 0 0 0 13.653333-23.04 301.511111 301.511111 0 0 1 201.955556 284.444444 109.795556 109.795556 0 0 0-109.795556 109.795556 121.457778 121.457778 0 0 0 2.56 23.04c0 2.844444 1.706667 5.404444 2.56 8.248888a105.528889 105.528889 0 0 0 4.551111 13.368889c1.422222 3.128889 3.128889 5.688889 4.835556 8.817778a106.097778 106.097778 0 0 0 6.542222 10.524445l6.257778 7.68a89.315556 89.315556 0 0 0 8.817778 9.102222z m70.542222-28.444444a51.768889 51.768889 0 0 1-19.911111-3.982222 54.613333 54.613333 0 0 1-13.084445-7.68l-1.991111-1.706667a56.888889 56.888889 0 0 1-9.955555-10.524444 52.622222 52.622222 0 0 1-5.973334-12.8 15.928889 15.928889 0 0 1 0-3.413334 59.448889 59.448889 0 0 1-2.275555-14.506666 55.182222 55.182222 0 0 1 54.897778-54.897778 41.244444 41.244444 0 0 1 8.533333 0 56.888889 56.888889 0 0 1 8.817778 2.275555l5.12 1.706667a54.897778 54.897778 0 0 1-22.471111 104.96z" fill="#646464" p-id="4178"></path></svg>