<?xml version="1.0" encoding="utf-8"?>
<svg version="1.1" xmlns:xlink="http://www.w3.org/1999/xlink" width="12px" height="12px" viewBox="370 638  12 12" xmlns="http://www.w3.org/2000/svg">
  <path d="M 370.5 640  A 1.5 1.5 0 0 1 372 638.5 L 380 638.5  A 1.5 1.5 0 0 1 381.5 640 L 381.5 648  A 1.5 1.5 0 0 1 380 649.5 L 372 649.5  A 1.5 1.5 0 0 1 370.5 648 L 370.5 640  Z " fill-rule="nonzero" fill="#ffffff" stroke="none" />
  <path d="M 370.5 640  A 1.5 1.5 0 0 1 372 638.5 L 380 638.5  A 1.5 1.5 0 0 1 381.5 640 L 381.5 648  A 1.5 1.5 0 0 1 380 649.5 L 372 649.5  A 1.5 1.5 0 0 1 370.5 648 L 370.5 640  Z " stroke-width="1" stroke="#797979" fill="none" />
</svg>