<?xml version="1.0" encoding="utf-8"?>
<svg version="1.1" xmlns:xlink="http://www.w3.org/1999/xlink" width="12px" height="12px" viewBox="370 462  12 12" xmlns="http://www.w3.org/2000/svg">
  <path d="M 370.5 464  A 1.5 1.5 0 0 1 372 462.5 L 380 462.5  A 1.5 1.5 0 0 1 381.5 464 L 381.5 472  A 1.5 1.5 0 0 1 380 473.5 L 372 473.5  A 1.5 1.5 0 0 1 370.5 472 L 370.5 464  Z " fill-rule="nonzero" fill="#f0f0f0" stroke="none" />
  <path d="M 370.5 464  A 1.5 1.5 0 0 1 372 462.5 L 380 462.5  A 1.5 1.5 0 0 1 381.5 464 L 381.5 472  A 1.5 1.5 0 0 1 380 473.5 L 372 473.5  A 1.5 1.5 0 0 1 370.5 472 L 370.5 464  Z " stroke-width="1" stroke="#797979" fill="none" />
</svg>