<?xml version="1.0" encoding="utf-8"?>
<svg version="1.1" xmlns:xlink="http://www.w3.org/1999/xlink" width="12px" height="12px" viewBox="370 775  12 12" xmlns="http://www.w3.org/2000/svg">
  <path d="M 370.5 777  A 1.5 1.5 0 0 1 372 775.5 L 380 775.5  A 1.5 1.5 0 0 1 381.5 777 L 381.5 785  A 1.5 1.5 0 0 1 380 786.5 L 372 786.5  A 1.5 1.5 0 0 1 370.5 785 L 370.5 777  Z " fill-rule="nonzero" fill="#ffffff" stroke="none" />
  <path d="M 370.5 777  A 1.5 1.5 0 0 1 372 775.5 L 380 775.5  A 1.5 1.5 0 0 1 381.5 777 L 381.5 785  A 1.5 1.5 0 0 1 380 786.5 L 372 786.5  A 1.5 1.5 0 0 1 370.5 785 L 370.5 777  Z " stroke-width="1" stroke="#797979" fill="none" />
</svg>