<?xml version="1.0" encoding="utf-8"?>
<svg version="1.1" xmlns:xlink="http://www.w3.org/1999/xlink" width="12px" height="12px" viewBox="370 604  12 12" xmlns="http://www.w3.org/2000/svg">
  <path d="M 370.5 606  A 1.5 1.5 0 0 1 372 604.5 L 380 604.5  A 1.5 1.5 0 0 1 381.5 606 L 381.5 614  A 1.5 1.5 0 0 1 380 615.5 L 372 615.5  A 1.5 1.5 0 0 1 370.5 614 L 370.5 606  Z " fill-rule="nonzero" fill="#ffffff" stroke="none" />
  <path d="M 370.5 606  A 1.5 1.5 0 0 1 372 604.5 L 380 604.5  A 1.5 1.5 0 0 1 381.5 606 L 381.5 614  A 1.5 1.5 0 0 1 380 615.5 L 372 615.5  A 1.5 1.5 0 0 1 370.5 614 L 370.5 606  Z " stroke-width="1" stroke="#797979" fill="none" />
  <path d="M 372.571428571429 610  L 375.142857142857 612.571428571429  L 379.428571428571 606.571428571429  " stroke-width="2.57142857142857" stroke="#797979" fill="none" />
</svg>