<?xml version="1.0" encoding="utf-8"?>
<svg version="1.1" xmlns:xlink="http://www.w3.org/1999/xlink" width="12px" height="12px" viewBox="370 741  12 12" xmlns="http://www.w3.org/2000/svg">
  <path d="M 370.5 743  A 1.5 1.5 0 0 1 372 741.5 L 380 741.5  A 1.5 1.5 0 0 1 381.5 743 L 381.5 751  A 1.5 1.5 0 0 1 380 752.5 L 372 752.5  A 1.5 1.5 0 0 1 370.5 751 L 370.5 743  Z " fill-rule="nonzero" fill="#ffffff" stroke="none" />
  <path d="M 370.5 743  A 1.5 1.5 0 0 1 372 741.5 L 380 741.5  A 1.5 1.5 0 0 1 381.5 743 L 381.5 751  A 1.5 1.5 0 0 1 380 752.5 L 372 752.5  A 1.5 1.5 0 0 1 370.5 751 L 370.5 743  Z " stroke-width="1" stroke="#797979" fill="none" />
  <path d="M 372.571428571429 747  L 375.142857142857 749.571428571429  L 379.428571428571 743.571428571429  " stroke-width="2.57142857142857" stroke="#797979" fill="none" />
</svg>