<?xml version="1.0" encoding="utf-8"?>
<svg version="1.1" xmlns:xlink="http://www.w3.org/1999/xlink" width="12px" height="12px" viewBox="370 569  12 12" xmlns="http://www.w3.org/2000/svg">
  <path d="M 370.5 571  A 1.5 1.5 0 0 1 372 569.5 L 380 569.5  A 1.5 1.5 0 0 1 381.5 571 L 381.5 579  A 1.5 1.5 0 0 1 380 580.5 L 372 580.5  A 1.5 1.5 0 0 1 370.5 579 L 370.5 571  Z " fill-rule="nonzero" fill="#ffffff" stroke="none" />
  <path d="M 370.5 571  A 1.5 1.5 0 0 1 372 569.5 L 380 569.5  A 1.5 1.5 0 0 1 381.5 571 L 381.5 579  A 1.5 1.5 0 0 1 380 580.5 L 372 580.5  A 1.5 1.5 0 0 1 370.5 579 L 370.5 571  Z " stroke-width="1" stroke="#797979" fill="none" />
  <path d="M 372.571428571429 575  L 375.142857142857 577.571428571429  L 379.428571428571 571.571428571429  " stroke-width="2.57142857142857" stroke="#797979" fill="none" />
</svg>