<?xml version="1.0" encoding="utf-8"?>
<svg version="1.1" xmlns:xlink="http://www.w3.org/1999/xlink" width="7px" height="7px" xmlns="http://www.w3.org/2000/svg">
  <g transform="matrix(1 0 0 1 -731 -420 )">
    <path d="M 734.5 420  C 736.46 420  738 421.54  738 423.5  C 738 425.46  736.46 427  734.5 427  C 732.54 427  731 425.46  731 423.5  C 731 421.54  732.54 420  734.5 420  Z " fill-rule="nonzero" fill="#00ccd9" stroke="none" />
    <path d="M 734.5 420.5  C 736.18 420.5  737.5 421.82  737.5 423.5  C 737.5 425.18  736.18 426.5  734.5 426.5  C 732.82 426.5  731.5 425.18  731.5 423.5  C 731.5 421.82  732.82 420.5  734.5 420.5  Z " stroke-width="1" stroke="#00ccd9" fill="none" />
  </g>
</svg>